{"header":{"keySignatures":[],"meta":[],"name":"","ppq":384,"tempos":[{"bpm":82.00003553334874,"ticks":0}],"timeSignatures":[{"ticks":0,"timeSignature":[4,4],"measures":0}]},"tracks":[{"channel":0,"controlChanges":{},"pitchBends":[],"instrument":{"family":"piano","name":"acoustic grand piano","number":0},"name":"Electric Piano","notes":[{"duration":0.18292675000000003,"durationTicks":96,"midi":56,"name":"G#3","ticks":384,"time":0.731707,"velocity":0.3937007874015748},{"duration":0.36585349999999994,"durationTicks":192,"midi":63,"name":"D#4","ticks":480,"time":0.91463375,"velocity":0.3937007874015748},{"duration":0.36585350000000005,"durationTicks":192,"midi":63,"name":"D#4","ticks":672,"time":1.28048725,"velocity":0.3937007874015748},{"duration":0.36585349999999983,"durationTicks":192,"midi":63,"name":"D#4","ticks":864,"time":1.64634075,"velocity":0.3937007874015748},{"duration":0.18292675000000003,"durationTicks":96,"midi":64,"name":"E4","ticks":1056,"time":2.01219425,"velocity":0.3937007874015748},{"duration":0.36585350000000005,"durationTicks":192,"midi":61,"name":"C#4","ticks":1152,"time":2.195121,"velocity":0.3937007874015748},{"duration":0.36585350000000005,"durationTicks":192,"midi":59,"name":"B3","ticks":1344,"time":2.5609745,"velocity":0.3937007874015748},{"duration":0.18292675000000003,"durationTicks":96,"midi":63,"name":"D#4","ticks":1536,"time":2.926828,"velocity":0.3937007874015748},{"duration":0.18292675000000003,"durationTicks":96,"midi":59,"name":"B3","ticks":1632,"time":3.10975475,"velocity":0.3937007874015748},{"duration":1.0975604999999997,"durationTicks":576,"midi":61,"name":"C#4","ticks":1728,"time":3.2926815,"velocity":0.3937007874015748},{"duration":0.18292675000000003,"durationTicks":96,"midi":58,"name":"A#3","ticks":2304,"time":4.390242,"velocity":0.3937007874015748},{"duration":0.36585350000000005,"durationTicks":192,"midi":59,"name":"B3","ticks":2400,"time":4.57316875,"velocity":0.3937007874015748},{"duration":0.18292675000000003,"durationTicks":96,"midi":63,"name":"D#4","ticks":2592,"time":4.93902225,"velocity":0.3937007874015748},{"duration":0.5487802500000001,"durationTicks":288,"midi":58,"name":"A#3","ticks":2688,"time":5.121949,"velocity":0.3937007874015748},{"duration":0.18292675000000003,"durationTicks":96,"midi":63,"name":"D#4","ticks":2976,"time":5.67072925,"velocity":0.3937007874015748},{"duration":0.5487802500000001,"durationTicks":288,"midi":56,"name":"G#3","ticks":3072,"time":5.853656,"velocity":0.3937007874015748},{"duration":0.18292675000000003,"durationTicks":96,"midi":56,"name":"G#3","ticks":3456,"time":6.585363,"velocity":0.3937007874015748},{"duration":0.18292675000000003,"durationTicks":96,"midi":63,"name":"D#4","ticks":3552,"time":6.76828975,"velocity":0.3937007874015748},{"duration":0.36585350000000005,"durationTicks":192,"midi":63,"name":"D#4","ticks":3648,"time":6.9512165,"velocity":0.3937007874015748},{"duration":0.36585350000000005,"durationTicks":192,"midi":63,"name":"D#4","ticks":3840,"time":7.31707,"velocity":0.3937007874015748},{"duration":0.36585349999999917,"durationTicks":192,"midi":64,"name":"E4","ticks":4032,"time":7.6829235,"velocity":0.3937007874015748},{"duration":0.36585350000000005,"durationTicks":192,"midi":61,"name":"C#4","ticks":4224,"time":8.048777,"velocity":0.3937007874015748},{"duration":0.36585350000000005,"durationTicks":192,"midi":59,"name":"B3","ticks":4416,"time":8.4146305,"velocity":0.3937007874015748},{"duration":0.5487802500000001,"durationTicks":288,"midi":63,"name":"D#4","ticks":4608,"time":8.780484,"velocity":0.3937007874015748},{"duration":0.7317070000000001,"durationTicks":384,"midi":61,"name":"C#4","ticks":4896,"time":9.32926425,"velocity":0.3937007874015748},{"duration":0.18292675000000003,"durationTicks":96,"midi":59,"name":"B3","ticks":5376,"time":10.243898,"velocity":0.3937007874015748},{"duration":0.36585350000000005,"durationTicks":192,"midi":66,"name":"F#4","ticks":5472,"time":10.42682475,"velocity":0.3937007874015748},{"duration":0.36585350000000005,"durationTicks":192,"midi":68,"name":"G#4","ticks":5664,"time":10.79267825,"velocity":0.3937007874015748},{"duration":0.36585350000000005,"durationTicks":192,"midi":63,"name":"D#4","ticks":5856,"time":11.15853175,"velocity":0.3937007874015748},{"duration":0.18292675000000003,"durationTicks":96,"midi":61,"name":"C#4","ticks":6048,"time":11.52438525,"velocity":0.3937007874015748},{"duration":0.5487802500000001,"durationTicks":288,"midi":63,"name":"D#4","ticks":6144,"time":11.707312,"velocity":0.3937007874015748},{"duration":0.18292675000000003,"durationTicks":96,"midi":66,"name":"F#4","ticks":6624,"time":12.62194575,"velocity":0.3937007874015748},{"duration":0.36585350000000005,"durationTicks":192,"midi":66,"name":"F#4","ticks":6720,"time":12.8048725,"velocity":0.3937007874015748},{"duration":0.36585350000000005,"durationTicks":192,"midi":66,"name":"F#4","ticks":6912,"time":13.170726,"velocity":0.3937007874015748},{"duration":0.18292675000000003,"durationTicks":96,"midi":66,"name":"F#4","ticks":7104,"time":13.5365795,"velocity":0.3937007874015748},{"duration":0.18292675000000003,"durationTicks":96,"midi":68,"name":"G#4","ticks":7200,"time":13.71950625,"velocity":0.3937007874015748},{"duration":0.36585350000000005,"durationTicks":192,"midi":61,"name":"C#4","ticks":7296,"time":13.902433,"velocity":0.3937007874015748},{"duration":0.18292675000000003,"durationTicks":96,"midi":61,"name":"C#4","ticks":7488,"time":14.2682865,"velocity":0.3937007874015748},{"duration":0.18292675000000003,"durationTicks":96,"midi":59,"name":"B3","ticks":7584,"time":14.45121325,"velocity":0.3937007874015748},{"duration":0.36585350000000005,"durationTicks":192,"midi":63,"name":"D#4","ticks":7680,"time":14.63414,"velocity":0.3937007874015748},{"duration":0.36585350000000005,"durationTicks":192,"midi":61,"name":"C#4","ticks":7872,"time":14.9999935,"velocity":0.3937007874015748},{"duration":0.36585350000000005,"durationTicks":192,"midi":61,"name":"C#4","ticks":8064,"time":15.365847,"velocity":0.3937007874015748},{"duration":0.18292674999999825,"durationTicks":96,"midi":59,"name":"B3","ticks":8352,"time":15.91462725,"velocity":0.3937007874015748},{"duration":0.18292675000000003,"durationTicks":96,"midi":61,"name":"C#4","ticks":8448,"time":16.097554,"velocity":0.3937007874015748},{"duration":0.36585350000000005,"durationTicks":192,"midi":63,"name":"D#4","ticks":8544,"time":16.28048075,"velocity":0.3937007874015748},{"duration":0.18292675000000003,"durationTicks":96,"midi":64,"name":"E4","ticks":8736,"time":16.64633425,"velocity":0.3937007874015748},{"duration":0.36585350000000005,"durationTicks":192,"midi":63,"name":"D#4","ticks":8832,"time":16.829261,"velocity":0.3937007874015748},{"duration":0.18292675000000003,"durationTicks":96,"midi":63,"name":"D#4","ticks":9024,"time":17.1951145,"velocity":0.3937007874015748},{"duration":0.18292675000000003,"durationTicks":96,"midi":61,"name":"C#4","ticks":9120,"time":17.37804125,"velocity":0.3937007874015748},{"duration":0.5487802500000001,"durationTicks":288,"midi":63,"name":"D#4","ticks":9216,"time":17.560968,"velocity":0.3937007874015748},{"duration":0.36585350000000005,"durationTicks":192,"midi":56,"name":"G#3","ticks":9696,"time":18.47560175,"velocity":0.3937007874015748},{"duration":0.18292675000000003,"durationTicks":96,"midi":63,"name":"D#4","ticks":9888,"time":18.84145525,"velocity":0.3937007874015748},{"duration":0.7317070000000001,"durationTicks":384,"midi":61,"name":"C#4","ticks":9984,"time":19.024382,"velocity":0.3937007874015748},{"duration":0.18292675000000003,"durationTicks":96,"midi":63,"name":"D#4","ticks":10368,"time":19.756089,"velocity":0.3937007874015748},{"duration":0.36585350000000005,"durationTicks":192,"midi":59,"name":"B3","ticks":10464,"time":19.93901575,"velocity":0.3937007874015748},{"duration":0.18292675000000003,"durationTicks":96,"midi":56,"name":"G#3","ticks":10656,"time":20.30486925,"velocity":0.3937007874015748},{"duration":0.18292675000000003,"durationTicks":96,"midi":59,"name":"B3","ticks":10752,"time":20.487796,"velocity":0.3937007874015748},{"duration":0.36585350000000005,"durationTicks":192,"midi":63,"name":"D#4","ticks":10848,"time":20.67072275,"velocity":0.3937007874015748},{"duration":0.18292675000000003,"durationTicks":96,"midi":59,"name":"B3","ticks":11040,"time":21.03657625,"velocity":0.3937007874015748},{"duration":0.7317070000000001,"durationTicks":384,"midi":61,"name":"C#4","ticks":11136,"time":21.219503,"velocity":0.3937007874015748},{"duration":0.18292675000000003,"durationTicks":96,"midi":56,"name":"G#3","ticks":11520,"time":21.95121,"velocity":0.3937007874015748},{"duration":0.36585350000000005,"durationTicks":192,"midi":63,"name":"D#4","ticks":11616,"time":22.13413675,"velocity":0.3937007874015748},{"duration":0.36585350000000005,"durationTicks":192,"midi":59,"name":"B3","ticks":11808,"time":22.49999025,"velocity":0.3937007874015748},{"duration":0.36585350000000005,"durationTicks":192,"midi":61,"name":"C#4","ticks":12000,"time":22.86584375,"velocity":0.3937007874015748},{"duration":0.36585350000000005,"durationTicks":192,"midi":59,"name":"B3","ticks":12192,"time":23.23169725,"velocity":0.3937007874015748},{"duration":0.18292675000000003,"durationTicks":96,"midi":56,"name":"G#3","ticks":12672,"time":24.146331,"velocity":0.3937007874015748},{"duration":0.36585350000000005,"durationTicks":192,"midi":63,"name":"D#4","ticks":12768,"time":24.32925775,"velocity":0.3937007874015748},{"duration":0.36585350000000005,"durationTicks":192,"midi":63,"name":"D#4","ticks":12960,"time":24.69511125,"velocity":0.3937007874015748},{"duration":0.36585350000000005,"durationTicks":192,"midi":63,"name":"D#4","ticks":13152,"time":25.06096475,"velocity":0.3937007874015748},{"duration":0.18292675000000003,"durationTicks":96,"midi":64,"name":"E4","ticks":13344,"time":25.42681825,"velocity":0.3937007874015748},{"duration":0.36585350000000005,"durationTicks":192,"midi":61,"name":"C#4","ticks":13440,"time":25.609745,"velocity":0.3937007874015748},{"duration":0.36585350000000005,"durationTicks":192,"midi":59,"name":"B3","ticks":13632,"time":25.9755985,"velocity":0.3937007874015748},{"duration":0.18292675000000003,"durationTicks":96,"midi":63,"name":"D#4","ticks":13824,"time":26.341452,"velocity":0.3937007874015748},{"duration":0.18292675000000003,"durationTicks":96,"midi":59,"name":"B3","ticks":13920,"time":26.52437875,"velocity":0.3937007874015748},{"duration":1.0975605000000002,"durationTicks":576,"midi":61,"name":"C#4","ticks":14016,"time":26.7073055,"velocity":0.3937007874015748},{"duration":0.18292675000000003,"durationTicks":96,"midi":58,"name":"A#3","ticks":14592,"time":27.804866,"velocity":0.3937007874015748},{"duration":0.36585350000000005,"durationTicks":192,"midi":59,"name":"B3","ticks":14688,"time":27.98779275,"velocity":0.3937007874015748},{"duration":0.18292675000000003,"durationTicks":96,"midi":63,"name":"D#4","ticks":14880,"time":28.35364625,"velocity":0.3937007874015748},{"duration":0.5487802500000001,"durationTicks":288,"midi":58,"name":"A#3","ticks":14976,"time":28.536573,"velocity":0.3937007874015748},{"duration":0.18292675000000003,"durationTicks":96,"midi":63,"name":"D#4","ticks":15264,"time":29.08535325,"velocity":0.3937007874015748},{"duration":0.5487802500000001,"durationTicks":288,"midi":56,"name":"G#3","ticks":15360,"time":29.26828,"velocity":0.3937007874015748},{"duration":0.18292675000000003,"durationTicks":96,"midi":56,"name":"G#3","ticks":15744,"time":29.999987,"velocity":0.3937007874015748},{"duration":0.18292675000000003,"durationTicks":96,"midi":63,"name":"D#4","ticks":15840,"time":30.18291375,"velocity":0.3937007874015748},{"duration":0.36585350000000005,"durationTicks":192,"midi":63,"name":"D#4","ticks":15936,"time":30.3658405,"velocity":0.3937007874015748},{"duration":0.36585350000000005,"durationTicks":192,"midi":63,"name":"D#4","ticks":16128,"time":30.731694,"velocity":0.3937007874015748},{"duration":0.36585350000000005,"durationTicks":192,"midi":64,"name":"E4","ticks":16320,"time":31.0975475,"velocity":0.3937007874015748},{"duration":0.36585350000000005,"durationTicks":192,"midi":61,"name":"C#4","ticks":16512,"time":31.463401,"velocity":0.3937007874015748},{"duration":0.3658534999999965,"durationTicks":192,"midi":59,"name":"B3","ticks":16704,"time":31.8292545,"velocity":0.3937007874015748},{"duration":0.5487802500000001,"durationTicks":288,"midi":63,"name":"D#4","ticks":16896,"time":32.195108,"velocity":0.3937007874015748},{"duration":0.7317070000000001,"durationTicks":384,"midi":61,"name":"C#4","ticks":17184,"time":32.74388825,"velocity":0.3937007874015748},{"duration":0.18292675000000003,"durationTicks":96,"midi":59,"name":"B3","ticks":17664,"time":33.658522,"velocity":0.3937007874015748},{"duration":0.36585350000000005,"durationTicks":192,"midi":66,"name":"F#4","ticks":17760,"time":33.84144875,"velocity":0.3937007874015748},{"duration":0.36585350000000005,"durationTicks":192,"midi":68,"name":"G#4","ticks":17952,"time":34.20730225,"velocity":0.3937007874015748},{"duration":0.36585350000000005,"durationTicks":192,"midi":63,"name":"D#4","ticks":18144,"time":34.57315575,"velocity":0.3937007874015748},{"duration":0.18292675000000003,"durationTicks":96,"midi":61,"name":"C#4","ticks":18336,"time":34.93900925,"velocity":0.3937007874015748},{"duration":0.5487802500000001,"durationTicks":288,"midi":63,"name":"D#4","ticks":18432,"time":35.121936,"velocity":0.3937007874015748},{"duration":0.18292675000000003,"durationTicks":96,"midi":66,"name":"F#4","ticks":18912,"time":36.03656975,"velocity":0.3937007874015748},{"duration":0.36585350000000005,"durationTicks":192,"midi":66,"name":"F#4","ticks":19008,"time":36.2194965,"velocity":0.3937007874015748},{"duration":0.36585350000000005,"durationTicks":192,"midi":66,"name":"F#4","ticks":19200,"time":36.58535,"velocity":0.3937007874015748},{"duration":0.18292675000000003,"durationTicks":96,"midi":66,"name":"F#4","ticks":19392,"time":36.9512035,"velocity":0.3937007874015748},{"duration":0.18292675000000003,"durationTicks":96,"midi":68,"name":"G#4","ticks":19488,"time":37.13413025,"velocity":0.3937007874015748},{"duration":0.36585350000000005,"durationTicks":192,"midi":61,"name":"C#4","ticks":19584,"time":37.317057,"velocity":0.3937007874015748},{"duration":0.18292675000000003,"durationTicks":96,"midi":61,"name":"C#4","ticks":19776,"time":37.6829105,"velocity":0.3937007874015748},{"duration":0.18292675000000003,"durationTicks":96,"midi":59,"name":"B3","ticks":19872,"time":37.86583725,"velocity":0.3937007874015748},{"duration":0.36585350000000005,"durationTicks":192,"midi":63,"name":"D#4","ticks":19968,"time":38.048764,"velocity":0.3937007874015748},{"duration":0.36585350000000005,"durationTicks":192,"midi":61,"name":"C#4","ticks":20160,"time":38.4146175,"velocity":0.3937007874015748},{"duration":0.36585350000000005,"durationTicks":192,"midi":61,"name":"C#4","ticks":20352,"time":38.780471,"velocity":0.3937007874015748},{"duration":0.18292675000000003,"durationTicks":96,"midi":59,"name":"B3","ticks":20640,"time":39.32925125,"velocity":0.3937007874015748},{"duration":0.18292675000000003,"durationTicks":96,"midi":61,"name":"C#4","ticks":20736,"time":39.512178,"velocity":0.3937007874015748},{"duration":0.36585350000000005,"durationTicks":192,"midi":63,"name":"D#4","ticks":20832,"time":39.69510475,"velocity":0.3937007874015748},{"duration":0.18292675000000003,"durationTicks":96,"midi":64,"name":"E4","ticks":21024,"time":40.06095825,"velocity":0.3937007874015748},{"duration":0.36585350000000005,"durationTicks":192,"midi":63,"name":"D#4","ticks":21120,"time":40.243885,"velocity":0.3937007874015748},{"duration":0.18292675000000003,"durationTicks":96,"midi":63,"name":"D#4","ticks":21312,"time":40.6097385,"velocity":0.3937007874015748},{"duration":0.18292675000000003,"durationTicks":96,"midi":61,"name":"C#4","ticks":21408,"time":40.79266525,"velocity":0.3937007874015748},{"duration":0.5487802500000001,"durationTicks":288,"midi":63,"name":"D#4","ticks":21504,"time":40.975592,"velocity":0.3937007874015748},{"duration":0.36585350000000005,"durationTicks":192,"midi":56,"name":"G#3","ticks":21984,"time":41.89022575,"velocity":0.3937007874015748},{"duration":0.18292675000000003,"durationTicks":96,"midi":63,"name":"D#4","ticks":22176,"time":42.25607925,"velocity":0.3937007874015748},{"duration":0.7317070000000001,"durationTicks":384,"midi":61,"name":"C#4","ticks":22272,"time":42.439006,"velocity":0.3937007874015748},{"duration":0.18292675000000003,"durationTicks":96,"midi":63,"name":"D#4","ticks":22656,"time":43.170713,"velocity":0.3937007874015748},{"duration":0.36585350000000005,"durationTicks":192,"midi":59,"name":"B3","ticks":22752,"time":43.35363975,"velocity":0.3937007874015748},{"duration":0.18292675000000003,"durationTicks":96,"midi":56,"name":"G#3","ticks":22944,"time":43.71949325,"velocity":0.3937007874015748},{"duration":0.18292675000000003,"durationTicks":96,"midi":59,"name":"B3","ticks":23040,"time":43.90242,"velocity":0.3937007874015748},{"duration":0.36585350000000005,"durationTicks":192,"midi":63,"name":"D#4","ticks":23136,"time":44.08534675,"velocity":0.3937007874015748},{"duration":0.18292675000000003,"durationTicks":96,"midi":59,"name":"B3","ticks":23328,"time":44.45120025,"velocity":0.3937007874015748},{"duration":0.7317070000000001,"durationTicks":384,"midi":61,"name":"C#4","ticks":23424,"time":44.634127,"velocity":0.3937007874015748},{"duration":0.18292675000000003,"durationTicks":96,"midi":56,"name":"G#3","ticks":23808,"time":45.365834,"velocity":0.3937007874015748},{"duration":0.36585350000000005,"durationTicks":192,"midi":63,"name":"D#4","ticks":23904,"time":45.54876075,"velocity":0.3937007874015748},{"duration":0.36585350000000005,"durationTicks":192,"midi":59,"name":"B3","ticks":24096,"time":45.91461425,"velocity":0.3937007874015748},{"duration":0.36585350000000005,"durationTicks":192,"midi":61,"name":"C#4","ticks":24288,"time":46.28046775,"velocity":0.3937007874015748},{"duration":0.36585350000000005,"durationTicks":192,"midi":59,"name":"B3","ticks":24480,"time":46.64632125,"velocity":0.3937007874015748},{"duration":0.18292674999999292,"durationTicks":96,"midi":56,"name":"G#3","ticks":49536,"time":94.390203,"velocity":0.3937007874015748},{"duration":0.36585350000000005,"durationTicks":192,"midi":63,"name":"D#4","ticks":49632,"time":94.57312974999999,"velocity":0.3937007874015748},{"duration":0.36585350000000005,"durationTicks":192,"midi":63,"name":"D#4","ticks":49824,"time":94.93898324999999,"velocity":0.3937007874015748},{"duration":0.36585350000000005,"durationTicks":192,"midi":63,"name":"D#4","ticks":50016,"time":95.30483674999999,"velocity":0.3937007874015748},{"duration":0.18292675000000713,"durationTicks":96,"midi":64,"name":"E4","ticks":50208,"time":95.67069024999999,"velocity":0.3937007874015748},{"duration":0.36585350000000005,"durationTicks":192,"midi":61,"name":"C#4","ticks":50304,"time":95.853617,"velocity":0.3937007874015748},{"duration":0.36585350000000005,"durationTicks":192,"midi":59,"name":"B3","ticks":50496,"time":96.2194705,"velocity":0.3937007874015748},{"duration":0.18292674999999292,"durationTicks":96,"midi":63,"name":"D#4","ticks":50688,"time":96.585324,"velocity":0.3937007874015748},{"duration":0.18292675000000713,"durationTicks":96,"midi":59,"name":"B3","ticks":50784,"time":96.76825074999999,"velocity":0.3937007874015748},{"duration":1.0975605000000002,"durationTicks":576,"midi":61,"name":"C#4","ticks":50880,"time":96.9511775,"velocity":0.3937007874015748},{"duration":0.18292674999999292,"durationTicks":96,"midi":58,"name":"A#3","ticks":51456,"time":98.048738,"velocity":0.3937007874015748},{"duration":0.36585350000000005,"durationTicks":192,"midi":59,"name":"B3","ticks":51552,"time":98.23166475,"velocity":0.3937007874015748},{"duration":0.18292675000000713,"durationTicks":96,"midi":63,"name":"D#4","ticks":51744,"time":98.59751825,"velocity":0.3937007874015748},{"duration":0.548780249999993,"durationTicks":288,"midi":58,"name":"A#3","ticks":51840,"time":98.780445,"velocity":0.3937007874015748},{"duration":0.18292675000000713,"durationTicks":96,"midi":63,"name":"D#4","ticks":52128,"time":99.32922525,"velocity":0.3937007874015748},{"duration":0.548780249999993,"durationTicks":288,"midi":56,"name":"G#3","ticks":52224,"time":99.512152,"velocity":0.3937007874015748},{"duration":0.18292674999999292,"durationTicks":96,"midi":56,"name":"G#3","ticks":52608,"time":100.243859,"velocity":0.3937007874015748},{"duration":0.18292675000000713,"durationTicks":96,"midi":63,"name":"D#4","ticks":52704,"time":100.42678575,"velocity":0.3937007874015748},{"duration":0.36585350000000005,"durationTicks":192,"midi":63,"name":"D#4","ticks":52800,"time":100.6097125,"velocity":0.3937007874015748},{"duration":0.36585350000000005,"durationTicks":192,"midi":63,"name":"D#4","ticks":52992,"time":100.975566,"velocity":0.3937007874015748},{"duration":0.36585350000000005,"durationTicks":192,"midi":64,"name":"E4","ticks":53184,"time":101.3414195,"velocity":0.3937007874015748},{"duration":0.36585350000000005,"durationTicks":192,"midi":61,"name":"C#4","ticks":53376,"time":101.707273,"velocity":0.3937007874015748},{"duration":0.36585350000000005,"durationTicks":192,"midi":59,"name":"B3","ticks":53568,"time":102.0731265,"velocity":0.3937007874015748},{"duration":0.548780249999993,"durationTicks":288,"midi":63,"name":"D#4","ticks":53760,"time":102.43898,"velocity":0.3937007874015748},{"duration":0.7317070000000001,"durationTicks":384,"midi":61,"name":"C#4","ticks":54048,"time":102.98776025,"velocity":0.3937007874015748},{"duration":0.18292674999999292,"durationTicks":96,"midi":59,"name":"B3","ticks":54528,"time":103.902394,"velocity":0.3937007874015748},{"duration":0.36585350000000005,"durationTicks":192,"midi":66,"name":"F#4","ticks":54624,"time":104.08532075,"velocity":0.3937007874015748},{"duration":0.36585350000000005,"durationTicks":192,"midi":68,"name":"G#4","ticks":54816,"time":104.45117425,"velocity":0.3937007874015748},{"duration":0.36585350000000005,"durationTicks":192,"midi":63,"name":"D#4","ticks":55008,"time":104.81702775,"velocity":0.3937007874015748},{"duration":0.18292675000000713,"durationTicks":96,"midi":61,"name":"C#4","ticks":55200,"time":105.18288125,"velocity":0.3937007874015748},{"duration":0.548780249999993,"durationTicks":288,"midi":63,"name":"D#4","ticks":55296,"time":105.365808,"velocity":0.3937007874015748},{"duration":0.18292675000000713,"durationTicks":96,"midi":66,"name":"F#4","ticks":55776,"time":106.28044175,"velocity":0.3937007874015748},{"duration":0.36585350000000005,"durationTicks":192,"midi":66,"name":"F#4","ticks":55872,"time":106.4633685,"velocity":0.3937007874015748},{"duration":0.36585350000000005,"durationTicks":192,"midi":66,"name":"F#4","ticks":56064,"time":106.829222,"velocity":0.3937007874015748},{"duration":0.18292674999999292,"durationTicks":96,"midi":66,"name":"F#4","ticks":56256,"time":107.1950755,"velocity":0.3937007874015748},{"duration":0.18292675000000713,"durationTicks":96,"midi":68,"name":"G#4","ticks":56352,"time":107.37800225,"velocity":0.3937007874015748},{"duration":0.36585350000000005,"durationTicks":192,"midi":61,"name":"C#4","ticks":56448,"time":107.560929,"velocity":0.3937007874015748},{"duration":0.18292674999999292,"durationTicks":96,"midi":61,"name":"C#4","ticks":56640,"time":107.9267825,"velocity":0.3937007874015748},{"duration":0.18292675000000713,"durationTicks":96,"midi":59,"name":"B3","ticks":56736,"time":108.10970925,"velocity":0.3937007874015748},{"duration":0.36585350000000005,"durationTicks":192,"midi":63,"name":"D#4","ticks":56832,"time":108.292636,"velocity":0.3937007874015748},{"duration":0.36585350000000005,"durationTicks":192,"midi":61,"name":"C#4","ticks":57024,"time":108.6584895,"velocity":0.3937007874015748},{"duration":0.36585350000000005,"durationTicks":192,"midi":61,"name":"C#4","ticks":57216,"time":109.024343,"velocity":0.3937007874015748},{"duration":0.18292675000000713,"durationTicks":96,"midi":59,"name":"B3","ticks":57504,"time":109.57312325,"velocity":0.3937007874015748},{"duration":0.18292674999999292,"durationTicks":96,"midi":61,"name":"C#4","ticks":57600,"time":109.75605,"velocity":0.3937007874015748},{"duration":0.36585350000000005,"durationTicks":192,"midi":63,"name":"D#4","ticks":57696,"time":109.93897675,"velocity":0.3937007874015748},{"duration":0.18292675000000713,"durationTicks":96,"midi":64,"name":"E4","ticks":57888,"time":110.30483025,"velocity":0.3937007874015748},{"duration":0.36585350000000005,"durationTicks":192,"midi":63,"name":"D#4","ticks":57984,"time":110.487757,"velocity":0.3937007874015748},{"duration":0.18292674999999292,"durationTicks":96,"midi":63,"name":"D#4","ticks":58176,"time":110.8536105,"velocity":0.3937007874015748},{"duration":0.18292675000000713,"durationTicks":96,"midi":61,"name":"C#4","ticks":58272,"time":111.03653725,"velocity":0.3937007874015748},{"duration":0.548780249999993,"durationTicks":288,"midi":63,"name":"D#4","ticks":58368,"time":111.219464,"velocity":0.3937007874015748},{"duration":0.36585350000000005,"durationTicks":192,"midi":56,"name":"G#3","ticks":58848,"time":112.13409775,"velocity":0.3937007874015748},{"duration":0.18292675000000713,"durationTicks":96,"midi":63,"name":"D#4","ticks":59040,"time":112.49995125,"velocity":0.3937007874015748},{"duration":0.7317070000000001,"durationTicks":384,"midi":61,"name":"C#4","ticks":59136,"time":112.682878,"velocity":0.3937007874015748},{"duration":0.18292674999999292,"durationTicks":96,"midi":63,"name":"D#4","ticks":59520,"time":113.414585,"velocity":0.3937007874015748},{"duration":0.36585350000000005,"durationTicks":192,"midi":59,"name":"B3","ticks":59616,"time":113.59751175,"velocity":0.3937007874015748},{"duration":0.18292675000000713,"durationTicks":96,"midi":56,"name":"G#3","ticks":59808,"time":113.96336525,"velocity":0.3937007874015748},{"duration":0.18292674999999292,"durationTicks":96,"midi":59,"name":"B3","ticks":59904,"time":114.146292,"velocity":0.3937007874015748},{"duration":0.36585350000000005,"durationTicks":192,"midi":63,"name":"D#4","ticks":60000,"time":114.32921875,"velocity":0.3937007874015748},{"duration":0.18292675000000713,"durationTicks":96,"midi":59,"name":"B3","ticks":60192,"time":114.69507225,"velocity":0.3937007874015748},{"duration":0.7317070000000001,"durationTicks":384,"midi":61,"name":"C#4","ticks":60288,"time":114.877999,"velocity":0.3937007874015748},{"duration":0.18292674999999292,"durationTicks":96,"midi":56,"name":"G#3","ticks":60672,"time":115.609706,"velocity":0.3937007874015748},{"duration":0.36585350000000005,"durationTicks":192,"midi":63,"name":"D#4","ticks":60768,"time":115.79263275,"velocity":0.3937007874015748},{"duration":0.36585350000000005,"durationTicks":192,"midi":59,"name":"B3","ticks":60960,"time":116.15848625,"velocity":0.3937007874015748},{"duration":0.36585350000000005,"durationTicks":192,"midi":61,"name":"C#4","ticks":61152,"time":116.52433975,"velocity":0.3937007874015748},{"duration":0.36585350000000005,"durationTicks":192,"midi":59,"name":"B3","ticks":61344,"time":116.89019325,"velocity":0.3937007874015748},{"duration":0.18292675000000713,"durationTicks":96,"midi":56,"name":"G#3","ticks":86400,"time":164.634075,"velocity":0.3937007874015748},{"duration":0.36585349999998584,"durationTicks":192,"midi":63,"name":"D#4","ticks":86496,"time":164.81700175,"velocity":0.3937007874015748},{"duration":0.36585350000001426,"durationTicks":192,"midi":63,"name":"D#4","ticks":86688,"time":165.18285525,"velocity":0.3937007874015748},{"duration":0.36585349999998584,"durationTicks":192,"midi":63,"name":"D#4","ticks":86880,"time":165.54870875,"velocity":0.3937007874015748},{"duration":0.18292675000000713,"durationTicks":96,"midi":64,"name":"E4","ticks":87072,"time":165.91456225,"velocity":0.3937007874015748},{"duration":0.36585350000001426,"durationTicks":192,"midi":61,"name":"C#4","ticks":87168,"time":166.097489,"velocity":0.3937007874015748},{"duration":0.36585349999998584,"durationTicks":192,"midi":59,"name":"B3","ticks":87360,"time":166.4633425,"velocity":0.3937007874015748},{"duration":0.18292675000000713,"durationTicks":96,"midi":63,"name":"D#4","ticks":87552,"time":166.829196,"velocity":0.3937007874015748},{"duration":0.18292675000000713,"durationTicks":96,"midi":59,"name":"B3","ticks":87648,"time":167.01212275,"velocity":0.3937007874015748},{"duration":1.097560499999986,"durationTicks":576,"midi":61,"name":"C#4","ticks":87744,"time":167.1950495,"velocity":0.3937007874015748},{"duration":0.18292675000000713,"durationTicks":96,"midi":58,"name":"A#3","ticks":88320,"time":168.29261,"velocity":0.3937007874015748},{"duration":0.36585349999998584,"durationTicks":192,"midi":59,"name":"B3","ticks":88416,"time":168.47553675,"velocity":0.3937007874015748},{"duration":0.18292675000000713,"durationTicks":96,"midi":63,"name":"D#4","ticks":88608,"time":168.84139025,"velocity":0.3937007874015748},{"duration":0.548780249999993,"durationTicks":288,"midi":58,"name":"A#3","ticks":88704,"time":169.024317,"velocity":0.3937007874015748},{"duration":0.18292675000000713,"durationTicks":96,"midi":63,"name":"D#4","ticks":88992,"time":169.57309725,"velocity":0.3937007874015748},{"duration":0.548780249999993,"durationTicks":288,"midi":56,"name":"G#3","ticks":89088,"time":169.756024,"velocity":0.3937007874015748},{"duration":0.18292675000000713,"durationTicks":96,"midi":56,"name":"G#3","ticks":89472,"time":170.487731,"velocity":0.3937007874015748},{"duration":0.18292675000000713,"durationTicks":96,"midi":63,"name":"D#4","ticks":89568,"time":170.67065775,"velocity":0.3937007874015748},{"duration":0.36585349999998584,"durationTicks":192,"midi":63,"name":"D#4","ticks":89664,"time":170.8535845,"velocity":0.3937007874015748},{"duration":0.36585350000001426,"durationTicks":192,"midi":63,"name":"D#4","ticks":89856,"time":171.219438,"velocity":0.3937007874015748},{"duration":0.36585349999998584,"durationTicks":192,"midi":64,"name":"E4","ticks":90048,"time":171.5852915,"velocity":0.3937007874015748},{"duration":0.36585350000001426,"durationTicks":192,"midi":61,"name":"C#4","ticks":90240,"time":171.951145,"velocity":0.3937007874015748},{"duration":0.36585349999998584,"durationTicks":192,"midi":59,"name":"B3","ticks":90432,"time":172.3169985,"velocity":0.3937007874015748},{"duration":0.548780249999993,"durationTicks":288,"midi":63,"name":"D#4","ticks":90624,"time":172.682852,"velocity":0.3937007874015748},{"duration":0.7317070000000001,"durationTicks":384,"midi":61,"name":"C#4","ticks":90912,"time":173.23163225,"velocity":0.3937007874015748},{"duration":0.18292675000000713,"durationTicks":96,"midi":59,"name":"B3","ticks":91392,"time":174.146266,"velocity":0.3937007874015748},{"duration":0.36585349999998584,"durationTicks":192,"midi":66,"name":"F#4","ticks":91488,"time":174.32919275,"velocity":0.3937007874015748},{"duration":0.36585350000001426,"durationTicks":192,"midi":68,"name":"G#4","ticks":91680,"time":174.69504625,"velocity":0.3937007874015748},{"duration":0.36585349999998584,"durationTicks":192,"midi":63,"name":"D#4","ticks":91872,"time":175.06089975,"velocity":0.3937007874015748},{"duration":0.18292675000000713,"durationTicks":96,"midi":61,"name":"C#4","ticks":92064,"time":175.42675325,"velocity":0.3937007874015748},{"duration":0.548780249999993,"durationTicks":288,"midi":63,"name":"D#4","ticks":92160,"time":175.60968,"velocity":0.3937007874015748},{"duration":0.18292675000000713,"durationTicks":96,"midi":66,"name":"F#4","ticks":92640,"time":176.52431375,"velocity":0.3937007874015748},{"duration":0.36585349999998584,"durationTicks":192,"midi":66,"name":"F#4","ticks":92736,"time":176.7072405,"velocity":0.3937007874015748},{"duration":0.36585350000001426,"durationTicks":192,"midi":66,"name":"F#4","ticks":92928,"time":177.073094,"velocity":0.3937007874015748},{"duration":0.1829267499999787,"durationTicks":96,"midi":66,"name":"F#4","ticks":93120,"time":177.4389475,"velocity":0.3937007874015748},{"duration":0.18292675000000713,"durationTicks":96,"midi":68,"name":"G#4","ticks":93216,"time":177.62187425,"velocity":0.3937007874015748},{"duration":0.36585350000001426,"durationTicks":192,"midi":61,"name":"C#4","ticks":93312,"time":177.804801,"velocity":0.3937007874015748},{"duration":0.1829267499999787,"durationTicks":96,"midi":61,"name":"C#4","ticks":93504,"time":178.1706545,"velocity":0.3937007874015748},{"duration":0.18292675000000713,"durationTicks":96,"midi":59,"name":"B3","ticks":93600,"time":178.35358125,"velocity":0.3937007874015748},{"duration":0.36585350000001426,"durationTicks":192,"midi":63,"name":"D#4","ticks":93696,"time":178.536508,"velocity":0.3937007874015748},{"duration":0.36585349999998584,"durationTicks":192,"midi":61,"name":"C#4","ticks":93888,"time":178.9023615,"velocity":0.3937007874015748},{"duration":0.36585350000001426,"durationTicks":192,"midi":61,"name":"C#4","ticks":94080,"time":179.268215,"velocity":0.3937007874015748},{"duration":0.18292675000000713,"durationTicks":96,"midi":59,"name":"B3","ticks":94368,"time":179.81699525,"velocity":0.3937007874015748},{"duration":0.18292675000000713,"durationTicks":96,"midi":61,"name":"C#4","ticks":94464,"time":179.999922,"velocity":0.3937007874015748},{"duration":0.36585349999998584,"durationTicks":192,"midi":63,"name":"D#4","ticks":94560,"time":180.18284875,"velocity":0.3937007874015748},{"duration":0.18292675000000713,"durationTicks":96,"midi":64,"name":"E4","ticks":94752,"time":180.54870225,"velocity":0.3937007874015748},{"duration":0.36585350000001426,"durationTicks":192,"midi":63,"name":"D#4","ticks":94848,"time":180.731629,"velocity":0.3937007874015748},{"duration":0.1829267499999787,"durationTicks":96,"midi":63,"name":"D#4","ticks":95040,"time":181.0974825,"velocity":0.3937007874015748},{"duration":0.18292675000000713,"durationTicks":96,"midi":61,"name":"C#4","ticks":95136,"time":181.28040925,"velocity":0.3937007874015748},{"duration":0.548780249999993,"durationTicks":288,"midi":63,"name":"D#4","ticks":95232,"time":181.463336,"velocity":0.3937007874015748},{"duration":0.36585349999998584,"durationTicks":192,"midi":56,"name":"G#3","ticks":95712,"time":182.37796975,"velocity":0.3937007874015748},{"duration":0.18292675000000713,"durationTicks":96,"midi":63,"name":"D#4","ticks":95904,"time":182.74382325,"velocity":0.3937007874015748},{"duration":0.7317070000000001,"durationTicks":384,"midi":61,"name":"C#4","ticks":96000,"time":182.92675,"velocity":0.3937007874015748},{"duration":0.18292675000000713,"durationTicks":96,"midi":63,"name":"D#4","ticks":96384,"time":183.658457,"velocity":0.3937007874015748},{"duration":0.36585349999998584,"durationTicks":192,"midi":59,"name":"B3","ticks":96480,"time":183.84138375,"velocity":0.3937007874015748},{"duration":0.18292675000000713,"durationTicks":96,"midi":56,"name":"G#3","ticks":96672,"time":184.20723725,"velocity":0.3937007874015748},{"duration":0.18292675000000713,"durationTicks":96,"midi":59,"name":"B3","ticks":96768,"time":184.390164,"velocity":0.3937007874015748},{"duration":0.36585349999998584,"durationTicks":192,"midi":63,"name":"D#4","ticks":96864,"time":184.57309075,"velocity":0.3937007874015748},{"duration":0.18292675000000713,"durationTicks":96,"midi":59,"name":"B3","ticks":97056,"time":184.93894425,"velocity":0.3937007874015748},{"duration":0.7317070000000001,"durationTicks":384,"midi":61,"name":"C#4","ticks":97152,"time":185.121871,"velocity":0.3937007874015748},{"duration":0.18292675000000713,"durationTicks":96,"midi":56,"name":"G#3","ticks":97536,"time":185.853578,"velocity":0.3937007874015748},{"duration":0.36585349999998584,"durationTicks":192,"midi":63,"name":"D#4","ticks":97632,"time":186.03650475,"velocity":0.3937007874015748},{"duration":0.36585350000001426,"durationTicks":192,"midi":59,"name":"B3","ticks":97824,"time":186.40235825,"velocity":0.3937007874015748},{"duration":0.36585349999998584,"durationTicks":192,"midi":61,"name":"C#4","ticks":98016,"time":186.76821175,"velocity":0.3937007874015748},{"duration":0.36585350000001426,"durationTicks":192,"midi":59,"name":"B3","ticks":98208,"time":187.13406525,"velocity":0.3937007874015748},{"duration":0.1829267499999787,"durationTicks":96,"midi":56,"name":"G#3","ticks":157056,"time":299.268163,"velocity":0.3937007874015748},{"duration":0.36585350000001426,"durationTicks":192,"midi":63,"name":"D#4","ticks":157152,"time":299.45108975,"velocity":0.3937007874015748},{"duration":0.36585350000001426,"durationTicks":192,"midi":63,"name":"D#4","ticks":157344,"time":299.81694325,"velocity":0.3937007874015748},{"duration":0.3658534999999574,"durationTicks":192,"midi":63,"name":"D#4","ticks":157536,"time":300.18279675,"velocity":0.3937007874015748},{"duration":0.18292675000003555,"durationTicks":96,"midi":64,"name":"E4","ticks":157728,"time":300.54865025,"velocity":0.3937007874015748},{"duration":0.3658534999999574,"durationTicks":192,"midi":61,"name":"C#4","ticks":157824,"time":300.731577,"velocity":0.3937007874015748},{"duration":0.36585350000001426,"durationTicks":192,"midi":59,"name":"B3","ticks":158016,"time":301.0974305,"velocity":0.3937007874015748},{"duration":0.18292675000003555,"durationTicks":96,"midi":63,"name":"D#4","ticks":158208,"time":301.463284,"velocity":0.3937007874015748},{"duration":0.1829267499999787,"durationTicks":96,"midi":59,"name":"B3","ticks":158304,"time":301.64621075,"velocity":0.3937007874015748},{"duration":1.097560499999986,"durationTicks":576,"midi":61,"name":"C#4","ticks":158400,"time":301.8291375,"velocity":0.3937007874015748},{"duration":0.18292675000003555,"durationTicks":96,"midi":58,"name":"A#3","ticks":158976,"time":302.926698,"velocity":0.3937007874015748},{"duration":0.3658534999999574,"durationTicks":192,"midi":59,"name":"B3","ticks":159072,"time":303.10962475,"velocity":0.3937007874015748},{"duration":0.18292675000003555,"durationTicks":96,"midi":63,"name":"D#4","ticks":159264,"time":303.47547825,"velocity":0.3937007874015748},{"duration":0.548780249999993,"durationTicks":288,"midi":58,"name":"A#3","ticks":159360,"time":303.658405,"velocity":0.3937007874015748},{"duration":0.1829267499999787,"durationTicks":96,"midi":63,"name":"D#4","ticks":159648,"time":304.20718525,"velocity":0.3937007874015748},{"duration":0.548780249999993,"durationTicks":288,"midi":56,"name":"G#3","ticks":159744,"time":304.390112,"velocity":0.3937007874015748},{"duration":0.1829267499999787,"durationTicks":96,"midi":56,"name":"G#3","ticks":160128,"time":305.121819,"velocity":0.3937007874015748},{"duration":0.1829267499999787,"durationTicks":96,"midi":63,"name":"D#4","ticks":160224,"time":305.30474575,"velocity":0.3937007874015748},{"duration":0.36585350000001426,"durationTicks":192,"midi":63,"name":"D#4","ticks":160320,"time":305.4876725,"velocity":0.3937007874015748},{"duration":0.36585350000001426,"durationTicks":192,"midi":63,"name":"D#4","ticks":160512,"time":305.853526,"velocity":0.3937007874015748},{"duration":0.36585350000001426,"durationTicks":192,"midi":64,"name":"E4","ticks":160704,"time":306.2193795,"velocity":0.3937007874015748},{"duration":0.3658534999999574,"durationTicks":192,"midi":61,"name":"C#4","ticks":160896,"time":306.585233,"velocity":0.3937007874015748},{"duration":0.36585350000001426,"durationTicks":192,"midi":59,"name":"B3","ticks":161088,"time":306.9510865,"velocity":0.3937007874015748},{"duration":0.548780249999993,"durationTicks":288,"midi":63,"name":"D#4","ticks":161280,"time":307.31694,"velocity":0.3937007874015748},{"duration":0.7317070000000285,"durationTicks":384,"midi":61,"name":"C#4","ticks":161568,"time":307.86572025,"velocity":0.3937007874015748},{"duration":0.18292675000003555,"durationTicks":96,"midi":59,"name":"B3","ticks":162048,"time":308.780354,"velocity":0.3937007874015748},{"duration":0.3658534999999574,"durationTicks":192,"midi":66,"name":"F#4","ticks":162144,"time":308.96328075,"velocity":0.3937007874015748},{"duration":0.36585350000001426,"durationTicks":192,"midi":68,"name":"G#4","ticks":162336,"time":309.32913425,"velocity":0.3937007874015748},{"duration":0.36585350000001426,"durationTicks":192,"midi":63,"name":"D#4","ticks":162528,"time":309.69498775,"velocity":0.3937007874015748},{"duration":0.1829267499999787,"durationTicks":96,"midi":61,"name":"C#4","ticks":162720,"time":310.06084125,"velocity":0.3937007874015748},{"duration":0.548780249999993,"durationTicks":288,"midi":63,"name":"D#4","ticks":162816,"time":310.243768,"velocity":0.3937007874015748},{"duration":0.1829267499999787,"durationTicks":96,"midi":66,"name":"F#4","ticks":163296,"time":311.15840175,"velocity":0.3937007874015748},{"duration":0.36585350000001426,"durationTicks":192,"midi":66,"name":"F#4","ticks":163392,"time":311.3413285,"velocity":0.3937007874015748},{"duration":0.36585350000001426,"durationTicks":192,"midi":66,"name":"F#4","ticks":163584,"time":311.707182,"velocity":0.3937007874015748},{"duration":0.1829267499999787,"durationTicks":96,"midi":66,"name":"F#4","ticks":163776,"time":312.0730355,"velocity":0.3937007874015748},{"duration":0.18292675000003555,"durationTicks":96,"midi":68,"name":"G#4","ticks":163872,"time":312.25596225,"velocity":0.3937007874015748},{"duration":0.3658534999999574,"durationTicks":192,"midi":61,"name":"C#4","ticks":163968,"time":312.438889,"velocity":0.3937007874015748},{"duration":0.18292675000003555,"durationTicks":96,"midi":61,"name":"C#4","ticks":164160,"time":312.8047425,"velocity":0.3937007874015748},{"duration":0.1829267499999787,"durationTicks":96,"midi":59,"name":"B3","ticks":164256,"time":312.98766925,"velocity":0.3937007874015748},{"duration":0.36585350000001426,"durationTicks":192,"midi":63,"name":"D#4","ticks":164352,"time":313.170596,"velocity":0.3937007874015748},{"duration":0.36585350000001426,"durationTicks":192,"midi":61,"name":"C#4","ticks":164544,"time":313.5364495,"velocity":0.3937007874015748},{"duration":0.3658534999999574,"durationTicks":192,"midi":61,"name":"C#4","ticks":164736,"time":313.902303,"velocity":0.3937007874015748},{"duration":0.1829267499999787,"durationTicks":96,"midi":59,"name":"B3","ticks":165024,"time":314.45108325,"velocity":0.3937007874015748},{"duration":0.18292675000003555,"durationTicks":96,"midi":61,"name":"C#4","ticks":165120,"time":314.63401,"velocity":0.3937007874015748},{"duration":0.3658534999999574,"durationTicks":192,"midi":63,"name":"D#4","ticks":165216,"time":314.81693675,"velocity":0.3937007874015748},{"duration":0.18292675000003555,"durationTicks":96,"midi":64,"name":"E4","ticks":165408,"time":315.18279025,"velocity":0.3937007874015748},{"duration":0.3658534999999574,"durationTicks":192,"midi":63,"name":"D#4","ticks":165504,"time":315.365717,"velocity":0.3937007874015748},{"duration":0.18292675000003555,"durationTicks":96,"midi":63,"name":"D#4","ticks":165696,"time":315.7315705,"velocity":0.3937007874015748},{"duration":0.1829267499999787,"durationTicks":96,"midi":61,"name":"C#4","ticks":165792,"time":315.91449725,"velocity":0.3937007874015748},{"duration":0.548780249999993,"durationTicks":288,"midi":63,"name":"D#4","ticks":165888,"time":316.097424,"velocity":0.3937007874015748},{"duration":0.36585350000001426,"durationTicks":192,"midi":56,"name":"G#3","ticks":166368,"time":317.01205775,"velocity":0.3937007874015748},{"duration":0.1829267499999787,"durationTicks":96,"midi":63,"name":"D#4","ticks":166560,"time":317.37791125,"velocity":0.3937007874015748},{"duration":0.7317070000000285,"durationTicks":384,"midi":61,"name":"C#4","ticks":166656,"time":317.560838,"velocity":0.3937007874015748},{"duration":0.1829267499999787,"durationTicks":96,"midi":63,"name":"D#4","ticks":167040,"time":318.292545,"velocity":0.3937007874015748},{"duration":0.36585350000001426,"durationTicks":192,"midi":59,"name":"B3","ticks":167136,"time":318.47547175,"velocity":0.3937007874015748},{"duration":0.1829267499999787,"durationTicks":96,"midi":56,"name":"G#3","ticks":167328,"time":318.84132525,"velocity":0.3937007874015748},{"duration":0.18292675000003555,"durationTicks":96,"midi":59,"name":"B3","ticks":167424,"time":319.024252,"velocity":0.3937007874015748},{"duration":0.3658534999999574,"durationTicks":192,"midi":63,"name":"D#4","ticks":167520,"time":319.20717875,"velocity":0.3937007874015748},{"duration":0.18292675000003555,"durationTicks":96,"midi":59,"name":"B3","ticks":167712,"time":319.57303225,"velocity":0.3937007874015748},{"duration":0.7317069999999717,"durationTicks":384,"midi":61,"name":"C#4","ticks":167808,"time":319.755959,"velocity":0.3937007874015748},{"duration":0.18292675000003555,"durationTicks":96,"midi":56,"name":"G#3","ticks":168192,"time":320.487666,"velocity":0.3937007874015748},{"duration":0.3658534999999574,"durationTicks":192,"midi":63,"name":"D#4","ticks":168288,"time":320.67059275,"velocity":0.3937007874015748},{"duration":0.36585350000001426,"durationTicks":192,"midi":59,"name":"B3","ticks":168480,"time":321.03644625,"velocity":0.3937007874015748},{"duration":0.36585350000001426,"durationTicks":192,"midi":61,"name":"C#4","ticks":168672,"time":321.40229975,"velocity":0.3937007874015748},{"duration":0.36585350000001426,"durationTicks":192,"midi":59,"name":"B3","ticks":168864,"time":321.76815325,"velocity":0.3937007874015748}]}]}