{"header":{"keySignatures":[],"meta":[],"name":"","ppq":384,"tempos":[{"bpm":120,"ticks":0}],"timeSignatures":[{"ticks":0,"timeSignature":[4,4],"measures":0}]},"tracks":[{"channel":0,"controlChanges":{},"pitchBends":[],"instrument":{"family":"piano","name":"acoustic grand piano","number":0},"name":"Electric Piano","notes":[{"duration":0.25,"durationTicks":192,"midi":55,"name":"G3","ticks":0,"time":0,"velocity":0.3937007874015748},{"duration":0.25,"durationTicks":192,"midi":64,"name":"E4","ticks":192,"time":0.25,"velocity":0.3937007874015748},{"duration":0.25,"durationTicks":192,"midi":62,"name":"D4","ticks":384,"time":0.5,"velocity":0.3937007874015748},{"duration":0.25,"durationTicks":192,"midi":60,"name":"C4","ticks":576,"time":0.75,"velocity":0.3937007874015748},{"duration":0.5,"durationTicks":384,"midi":55,"name":"G3","ticks":768,"time":1,"velocity":0.3937007874015748},{"duration":0.25,"durationTicks":192,"midi":52,"name":"E3","ticks":1152,"time":1.5,"velocity":0.3937007874015748},{"duration":0.125,"durationTicks":96,"midi":55,"name":"G3","ticks":1344,"time":1.75,"velocity":0.3937007874015748},{"duration":0.125,"durationTicks":96,"midi":55,"name":"G3","ticks":1440,"time":1.875,"velocity":0.3937007874015748},{"duration":0.25,"durationTicks":192,"midi":55,"name":"G3","ticks":1536,"time":2,"velocity":0.3937007874015748},{"duration":0.25,"durationTicks":192,"midi":64,"name":"E4","ticks":1728,"time":2.25,"velocity":0.3937007874015748},{"duration":0.25,"durationTicks":192,"midi":62,"name":"D4","ticks":1920,"time":2.5,"velocity":0.3937007874015748},{"duration":0.25,"durationTicks":192,"midi":60,"name":"C4","ticks":2112,"time":2.75,"velocity":0.3937007874015748},{"duration":0.5,"durationTicks":384,"midi":57,"name":"A3","ticks":2304,"time":3,"velocity":0.3937007874015748},{"duration":0.5,"durationTicks":384,"midi":43,"name":"G2","ticks":2688,"time":3.5,"velocity":0.3937007874015748},{"duration":0.25,"durationTicks":192,"midi":57,"name":"A3","ticks":3072,"time":4,"velocity":0.3937007874015748},{"duration":0.25,"durationTicks":192,"midi":65,"name":"F4","ticks":3264,"time":4.25,"velocity":0.3937007874015748},{"duration":0.25,"durationTicks":192,"midi":64,"name":"E4","ticks":3456,"time":4.5,"velocity":0.3937007874015748},{"duration":0.25,"durationTicks":192,"midi":62,"name":"D4","ticks":3648,"time":4.75,"velocity":0.3937007874015748},{"duration":0.5,"durationTicks":384,"midi":59,"name":"B3","ticks":3840,"time":5,"velocity":0.3937007874015748},{"duration":0.5,"durationTicks":384,"midi":47,"name":"B2","ticks":4224,"time":5.5,"velocity":0.3937007874015748},{"duration":0.25,"durationTicks":192,"midi":67,"name":"G4","ticks":4608,"time":6,"velocity":0.3937007874015748},{"duration":0.25,"durationTicks":192,"midi":67,"name":"G4","ticks":4800,"time":6.25,"velocity":0.3937007874015748},{"duration":0.25,"durationTicks":192,"midi":65,"name":"F4","ticks":4992,"time":6.5,"velocity":0.3937007874015748},{"duration":0.25,"durationTicks":192,"midi":62,"name":"D4","ticks":5184,"time":6.75,"velocity":0.3937007874015748},{"duration":0.5,"durationTicks":384,"midi":64,"name":"E4","ticks":5376,"time":7,"velocity":0.3937007874015748},{"duration":0.5,"durationTicks":384,"midi":52,"name":"E3","ticks":5760,"time":7.5,"velocity":0.3937007874015748},{"duration":0.25,"durationTicks":192,"midi":55,"name":"G3","ticks":6144,"time":8,"velocity":0.3937007874015748},{"duration":0.25,"durationTicks":192,"midi":64,"name":"E4","ticks":6336,"time":8.25,"velocity":0.3937007874015748},{"duration":0.25,"durationTicks":192,"midi":62,"name":"D4","ticks":6528,"time":8.5,"velocity":0.3937007874015748},{"duration":0.25,"durationTicks":192,"midi":60,"name":"C4","ticks":6720,"time":8.75,"velocity":0.3937007874015748},{"duration":0.5,"durationTicks":384,"midi":55,"name":"G3","ticks":6912,"time":9,"velocity":0.3937007874015748},{"duration":0.5,"durationTicks":384,"midi":52,"name":"E3","ticks":7296,"time":9.5,"velocity":0.3937007874015748},{"duration":0.25,"durationTicks":192,"midi":55,"name":"G3","ticks":7680,"time":10,"velocity":0.3937007874015748},{"duration":0.125,"durationTicks":96,"midi":55,"name":"G3","ticks":7872,"time":10.25,"velocity":0.3937007874015748},{"duration":0.125,"durationTicks":96,"midi":64,"name":"E4","ticks":7968,"time":10.375,"velocity":0.3937007874015748},{"duration":0.25,"durationTicks":192,"midi":62,"name":"D4","ticks":8064,"time":10.5,"velocity":0.3937007874015748},{"duration":0.25,"durationTicks":192,"midi":60,"name":"C4","ticks":8256,"time":10.75,"velocity":0.3937007874015748},{"duration":0.25,"durationTicks":192,"midi":57,"name":"A3","ticks":8448,"time":11,"velocity":0.3937007874015748},{"duration":0.5,"durationTicks":384,"midi":45,"name":"A2","ticks":8640,"time":11.25,"velocity":0.3937007874015748},{"duration":0.25,"durationTicks":192,"midi":57,"name":"A3","ticks":9024,"time":11.75,"velocity":0.3937007874015748},{"duration":0.25,"durationTicks":192,"midi":57,"name":"A3","ticks":9216,"time":12,"velocity":0.3937007874015748},{"duration":0.25,"durationTicks":192,"midi":65,"name":"F4","ticks":9408,"time":12.25,"velocity":0.3937007874015748},{"duration":0.25,"durationTicks":192,"midi":64,"name":"E4","ticks":9600,"time":12.5,"velocity":0.3937007874015748},{"duration":0.25,"durationTicks":192,"midi":62,"name":"D4","ticks":9792,"time":12.75,"velocity":0.3937007874015748},{"duration":0.25,"durationTicks":192,"midi":67,"name":"G4","ticks":9984,"time":13,"velocity":0.3937007874015748},{"duration":0.25,"durationTicks":192,"midi":67,"name":"G4","ticks":10176,"time":13.25,"velocity":0.3937007874015748},{"duration":0.25,"durationTicks":192,"midi":67,"name":"G4","ticks":10368,"time":13.5,"velocity":0.3937007874015748},{"duration":0.25,"durationTicks":192,"midi":67,"name":"G4","ticks":10560,"time":13.75,"velocity":0.3937007874015748},{"duration":0.25,"durationTicks":192,"midi":69,"name":"A4","ticks":10752,"time":14,"velocity":0.3937007874015748},{"duration":0.25,"durationTicks":192,"midi":67,"name":"G4","ticks":10944,"time":14.25,"velocity":0.3937007874015748},{"duration":0.25,"durationTicks":192,"midi":65,"name":"F4","ticks":11136,"time":14.5,"velocity":0.3937007874015748},{"duration":0.25,"durationTicks":192,"midi":62,"name":"D4","ticks":11328,"time":14.75,"velocity":0.3937007874015748},{"duration":0.5,"durationTicks":384,"midi":60,"name":"C4","ticks":11520,"time":15,"velocity":0.3937007874015748},{"duration":0.5,"durationTicks":384,"midi":52,"name":"E3","ticks":11904,"time":15.5,"velocity":0.3937007874015748},{"duration":0.25,"durationTicks":192,"midi":64,"name":"E4","ticks":12288,"time":16,"velocity":0.3937007874015748},{"duration":0.25,"durationTicks":192,"midi":64,"name":"E4","ticks":12480,"time":16.25,"velocity":0.3937007874015748},{"duration":0.5,"durationTicks":384,"midi":64,"name":"E4","ticks":12672,"time":16.5,"velocity":0.3937007874015748},{"duration":0.25,"durationTicks":192,"midi":64,"name":"E4","ticks":13056,"time":17,"velocity":0.3937007874015748},{"duration":0.25,"durationTicks":192,"midi":64,"name":"E4","ticks":13248,"time":17.25,"velocity":0.3937007874015748},{"duration":0.5,"durationTicks":384,"midi":64,"name":"E4","ticks":13440,"time":17.5,"velocity":0.3937007874015748},{"duration":0.25,"durationTicks":192,"midi":64,"name":"E4","ticks":13824,"time":18,"velocity":0.3937007874015748},{"duration":0.25,"durationTicks":192,"midi":67,"name":"G4","ticks":14016,"time":18.25,"velocity":0.3937007874015748},{"duration":0.25,"durationTicks":192,"midi":60,"name":"C4","ticks":14208,"time":18.5,"velocity":0.3937007874015748},{"duration":0.25,"durationTicks":192,"midi":62,"name":"D4","ticks":14400,"time":18.75,"velocity":0.3937007874015748},{"duration":0.5,"durationTicks":384,"midi":64,"name":"E4","ticks":14592,"time":19,"velocity":0.3937007874015748},{"duration":0.5,"durationTicks":384,"midi":55,"name":"G3","ticks":14976,"time":19.5,"velocity":0.3937007874015748},{"duration":0.25,"durationTicks":192,"midi":65,"name":"F4","ticks":15360,"time":20,"velocity":0.3937007874015748},{"duration":0.25,"durationTicks":192,"midi":65,"name":"F4","ticks":15552,"time":20.25,"velocity":0.3937007874015748},{"duration":0.25,"durationTicks":192,"midi":65,"name":"F4","ticks":15744,"time":20.5,"velocity":0.3937007874015748},{"duration":0.25,"durationTicks":192,"midi":65,"name":"F4","ticks":15936,"time":20.75,"velocity":0.3937007874015748},{"duration":0.25,"durationTicks":192,"midi":65,"name":"F4","ticks":16128,"time":21,"velocity":0.3937007874015748},{"duration":0.25,"durationTicks":192,"midi":64,"name":"E4","ticks":16320,"time":21.25,"velocity":0.3937007874015748},{"duration":0.25,"durationTicks":192,"midi":64,"name":"E4","ticks":16512,"time":21.5,"velocity":0.3937007874015748},{"duration":0.25,"durationTicks":192,"midi":64,"name":"E4","ticks":16704,"time":21.75,"velocity":0.3937007874015748},{"duration":0.25,"durationTicks":192,"midi":64,"name":"E4","ticks":16896,"time":22,"velocity":0.3937007874015748},{"duration":0.25,"durationTicks":192,"midi":62,"name":"D4","ticks":17088,"time":22.25,"velocity":0.3937007874015748},{"duration":0.25,"durationTicks":192,"midi":62,"name":"D4","ticks":17280,"time":22.5,"velocity":0.3937007874015748},{"duration":0.25,"durationTicks":192,"midi":60,"name":"C4","ticks":17472,"time":22.75,"velocity":0.3937007874015748},{"duration":0.25,"durationTicks":192,"midi":55,"name":"G3","ticks":17664,"time":23,"velocity":0.3937007874015748},{"duration":0.25,"durationTicks":192,"midi":53,"name":"F3","ticks":17856,"time":23.25,"velocity":0.3937007874015748},{"duration":0.25,"durationTicks":192,"midi":52,"name":"E3","ticks":18048,"time":23.5,"velocity":0.3937007874015748},{"duration":0.25,"durationTicks":192,"midi":50,"name":"D3","ticks":18240,"time":23.75,"velocity":0.3937007874015748},{"duration":0.25,"durationTicks":192,"midi":64,"name":"E4","ticks":18432,"time":24,"velocity":0.3937007874015748},{"duration":0.25,"durationTicks":192,"midi":64,"name":"E4","ticks":18624,"time":24.25,"velocity":0.3937007874015748},{"duration":0.5,"durationTicks":384,"midi":64,"name":"E4","ticks":18816,"time":24.5,"velocity":0.3937007874015748},{"duration":0.25,"durationTicks":192,"midi":64,"name":"E4","ticks":19200,"time":25,"velocity":0.3937007874015748},{"duration":0.25,"durationTicks":192,"midi":64,"name":"E4","ticks":19392,"time":25.25,"velocity":0.3937007874015748},{"duration":0.5,"durationTicks":384,"midi":64,"name":"E4","ticks":19584,"time":25.5,"velocity":0.3937007874015748},{"duration":0.25,"durationTicks":192,"midi":64,"name":"E4","ticks":19968,"time":26,"velocity":0.3937007874015748},{"duration":0.25,"durationTicks":192,"midi":67,"name":"G4","ticks":20160,"time":26.25,"velocity":0.3937007874015748},{"duration":0.25,"durationTicks":192,"midi":60,"name":"C4","ticks":20352,"time":26.5,"velocity":0.3937007874015748},{"duration":0.25,"durationTicks":192,"midi":62,"name":"D4","ticks":20544,"time":26.75,"velocity":0.3937007874015748},{"duration":0.5,"durationTicks":384,"midi":64,"name":"E4","ticks":20736,"time":27,"velocity":0.3937007874015748},{"duration":0.5,"durationTicks":384,"midi":55,"name":"G3","ticks":21120,"time":27.5,"velocity":0.3937007874015748},{"duration":0.25,"durationTicks":192,"midi":65,"name":"F4","ticks":21504,"time":28,"velocity":0.3937007874015748},{"duration":0.25,"durationTicks":192,"midi":65,"name":"F4","ticks":21696,"time":28.25,"velocity":0.3937007874015748},{"duration":0.25,"durationTicks":192,"midi":65,"name":"F4","ticks":21888,"time":28.5,"velocity":0.3937007874015748},{"duration":0.25,"durationTicks":192,"midi":65,"name":"F4","ticks":22080,"time":28.75,"velocity":0.3937007874015748},{"duration":0.25,"durationTicks":192,"midi":65,"name":"F4","ticks":22272,"time":29,"velocity":0.3937007874015748},{"duration":0.25,"durationTicks":192,"midi":64,"name":"E4","ticks":22464,"time":29.25,"velocity":0.3937007874015748},{"duration":0.25,"durationTicks":192,"midi":64,"name":"E4","ticks":22656,"time":29.5,"velocity":0.3937007874015748},{"duration":0.25,"durationTicks":192,"midi":64,"name":"E4","ticks":22848,"time":29.75,"velocity":0.3937007874015748},{"duration":0.25,"durationTicks":192,"midi":67,"name":"G4","ticks":23040,"time":30,"velocity":0.3937007874015748},{"duration":0.25,"durationTicks":192,"midi":67,"name":"G4","ticks":23232,"time":30.25,"velocity":0.3937007874015748},{"duration":0.25,"durationTicks":192,"midi":65,"name":"F4","ticks":23424,"time":30.5,"velocity":0.3937007874015748},{"duration":0.25,"durationTicks":192,"midi":62,"name":"D4","ticks":23616,"time":30.75,"velocity":0.3937007874015748},{"duration":0.5,"durationTicks":384,"midi":60,"name":"C4","ticks":23808,"time":31,"velocity":0.3937007874015748},{"duration":0.5,"durationTicks":384,"midi":72,"name":"C5","ticks":24192,"time":31.5,"velocity":0.3937007874015748}]}]}