{"header":{"keySignatures":[],"meta":[],"name":"","ppq":384,"tempos":[{"bpm":109.00014170018422,"ticks":0}],"timeSignatures":[{"ticks":0,"timeSignature":[4,4],"measures":0}]},"tracks":[{"channel":0,"controlChanges":{},"pitchBends":[],"instrument":{"family":"piano","name":"acoustic grand piano","number":0},"name":"Electric Piano","notes":[{"duration":0.275229,"durationTicks":192,"midi":73,"name":"C#5","ticks":0,"time":0,"velocity":0.3937007874015748},{"duration":0.275229,"durationTicks":192,"midi":76,"name":"E5","ticks":192,"time":0.275229,"velocity":0.3937007874015748},{"duration":0.27522900000000006,"durationTicks":192,"midi":73,"name":"C#5","ticks":384,"time":0.550458,"velocity":0.3937007874015748},{"duration":0.8256870000000001,"durationTicks":576,"midi":78,"name":"F#5","ticks":576,"time":0.8256870000000001,"velocity":0.3937007874015748},{"duration":0.8256869999999998,"durationTicks":576,"midi":81,"name":"A5","ticks":1152,"time":1.6513740000000001,"velocity":0.3937007874015748},{"duration":1.6513739999999997,"durationTicks":1152,"midi":80,"name":"G#5","ticks":1728,"time":2.477061,"velocity":0.3937007874015748},{"duration":0.2752290000000004,"durationTicks":192,"midi":73,"name":"C#5","ticks":3072,"time":4.403664,"velocity":0.3937007874015748},{"duration":0.2752289999999995,"durationTicks":192,"midi":76,"name":"E5","ticks":3264,"time":4.678893,"velocity":0.3937007874015748},{"duration":0.2752290000000004,"durationTicks":192,"midi":73,"name":"C#5","ticks":3456,"time":4.954122,"velocity":0.3937007874015748},{"duration":0.8256869999999994,"durationTicks":576,"midi":81,"name":"A5","ticks":3648,"time":5.229351,"velocity":0.3937007874015748},{"duration":0.8256870000000003,"durationTicks":576,"midi":80,"name":"G#5","ticks":4224,"time":6.055038,"velocity":0.3937007874015748},{"duration":1.6513740000000006,"durationTicks":1152,"midi":76,"name":"E5","ticks":4800,"time":6.880725,"velocity":0.3937007874015748},{"duration":0.2752289999999995,"durationTicks":192,"midi":73,"name":"C#5","ticks":6144,"time":8.807328,"velocity":0.3937007874015748},{"duration":0.2752290000000013,"durationTicks":192,"midi":76,"name":"E5","ticks":6336,"time":9.082557,"velocity":0.3937007874015748},{"duration":0.2752289999999995,"durationTicks":192,"midi":73,"name":"C#5","ticks":6528,"time":9.357786,"velocity":0.3937007874015748},{"duration":0.8256870000000003,"durationTicks":576,"midi":78,"name":"F#5","ticks":6720,"time":9.633015,"velocity":0.3937007874015748},{"duration":0.8256870000000003,"durationTicks":576,"midi":81,"name":"A5","ticks":7296,"time":10.458702,"velocity":0.3937007874015748},{"duration":1.6513739999999988,"durationTicks":1152,"midi":80,"name":"G#5","ticks":7872,"time":11.284389000000001,"velocity":0.3937007874015748},{"duration":0.2752289999999995,"durationTicks":192,"midi":73,"name":"C#5","ticks":9216,"time":13.210992000000001,"velocity":0.3937007874015748},{"duration":0.2752289999999995,"durationTicks":192,"midi":76,"name":"E5","ticks":9408,"time":13.486221,"velocity":0.3937007874015748},{"duration":0.2752289999999995,"durationTicks":192,"midi":73,"name":"C#5","ticks":9600,"time":13.76145,"velocity":0.3937007874015748},{"duration":0.8256870000000003,"durationTicks":576,"midi":81,"name":"A5","ticks":9792,"time":14.036679,"velocity":0.3937007874015748},{"duration":0.8256870000000003,"durationTicks":576,"midi":80,"name":"G#5","ticks":10368,"time":14.862366,"velocity":0.3937007874015748},{"duration":1.6513740000000006,"durationTicks":1152,"midi":76,"name":"E5","ticks":10944,"time":15.688053,"velocity":0.3937007874015748},{"duration":0.2752289999999995,"durationTicks":192,"midi":73,"name":"C#5","ticks":12288,"time":17.614656,"velocity":0.3937007874015748},{"duration":0.2752289999999995,"durationTicks":192,"midi":76,"name":"E5","ticks":12480,"time":17.889885,"velocity":0.3937007874015748},{"duration":0.2752289999999995,"durationTicks":192,"midi":73,"name":"C#5","ticks":12672,"time":18.165114,"velocity":0.3937007874015748},{"duration":0.5504580000000026,"durationTicks":384,"midi":78,"name":"F#5","ticks":12864,"time":18.440343,"velocity":0.3937007874015748},{"duration":0.2752289999999995,"durationTicks":192,"midi":61,"name":"C#4","ticks":13248,"time":18.990801,"velocity":0.3937007874015748},{"duration":0.2752289999999995,"durationTicks":192,"midi":61,"name":"C#4","ticks":13440,"time":19.26603,"velocity":0.3937007874015748},{"duration":0.2752289999999995,"durationTicks":192,"midi":61,"name":"C#4","ticks":13632,"time":19.541259,"velocity":0.3937007874015748},{"duration":0.2752289999999995,"durationTicks":192,"midi":61,"name":"C#4","ticks":13824,"time":19.816488,"velocity":0.3937007874015748},{"duration":0.2752289999999995,"durationTicks":192,"midi":62,"name":"D4","ticks":14016,"time":20.091717,"velocity":0.3937007874015748},{"duration":0.5504580000000026,"durationTicks":384,"midi":61,"name":"C#4","ticks":14208,"time":20.366946,"velocity":0.3937007874015748},{"duration":0.2752289999999995,"durationTicks":192,"midi":61,"name":"C#4","ticks":14592,"time":20.917404,"velocity":0.3937007874015748},{"duration":0.2752289999999995,"durationTicks":192,"midi":59,"name":"B3","ticks":14784,"time":21.192633,"velocity":0.3937007874015748},{"duration":1.1009160000000016,"durationTicks":768,"midi":57,"name":"A3","ticks":14976,"time":21.467862,"velocity":0.3937007874015748},{"duration":0.2752289999999995,"durationTicks":192,"midi":61,"name":"C#4","ticks":15936,"time":22.844007,"velocity":0.3937007874015748},{"duration":0.2752289999999995,"durationTicks":192,"midi":61,"name":"C#4","ticks":16128,"time":23.119236,"velocity":0.3937007874015748},{"duration":0.2752289999999995,"durationTicks":192,"midi":59,"name":"B3","ticks":16320,"time":23.394465,"velocity":0.3937007874015748},{"duration":0.550457999999999,"durationTicks":384,"midi":57,"name":"A3","ticks":16512,"time":23.669694,"velocity":0.3937007874015748},{"duration":0.5504580000000026,"durationTicks":384,"midi":59,"name":"B3","ticks":16896,"time":24.220152,"velocity":0.3937007874015748},{"duration":0.2752289999999995,"durationTicks":192,"midi":54,"name":"F#3","ticks":17280,"time":24.77061,"velocity":0.3937007874015748},{"duration":0.2752289999999995,"durationTicks":192,"midi":61,"name":"C#4","ticks":17472,"time":25.045839,"velocity":0.3937007874015748},{"duration":0.2752289999999995,"durationTicks":192,"midi":61,"name":"C#4","ticks":17664,"time":25.321068,"velocity":0.3937007874015748},{"duration":0.2752289999999995,"durationTicks":192,"midi":59,"name":"B3","ticks":17856,"time":25.596297,"velocity":0.3937007874015748},{"duration":0.5504580000000026,"durationTicks":384,"midi":57,"name":"A3","ticks":18048,"time":25.871526,"velocity":0.3937007874015748},{"duration":0.8256869999999985,"durationTicks":576,"midi":59,"name":"B3","ticks":18432,"time":26.421984000000002,"velocity":0.3937007874015748},{"duration":0.2752289999999995,"durationTicks":192,"midi":54,"name":"F#3","ticks":19200,"time":27.5229,"velocity":0.3937007874015748},{"duration":0.2752289999999995,"durationTicks":192,"midi":61,"name":"C#4","ticks":19392,"time":27.798129,"velocity":0.3937007874015748},{"duration":0.2752289999999995,"durationTicks":192,"midi":61,"name":"C#4","ticks":19584,"time":28.073358,"velocity":0.3937007874015748},{"duration":0.27522900000000305,"durationTicks":192,"midi":61,"name":"C#4","ticks":19776,"time":28.348587,"velocity":0.3937007874015748},{"duration":0.2752289999999995,"durationTicks":192,"midi":61,"name":"C#4","ticks":19968,"time":28.623816,"velocity":0.3937007874015748},{"duration":0.2752289999999995,"durationTicks":192,"midi":62,"name":"D4","ticks":20160,"time":28.899045,"velocity":0.3937007874015748},{"duration":0.550457999999999,"durationTicks":384,"midi":61,"name":"C#4","ticks":20352,"time":29.174274,"velocity":0.3937007874015748},{"duration":0.2752289999999995,"durationTicks":192,"midi":61,"name":"C#4","ticks":20736,"time":29.724732,"velocity":0.3937007874015748},{"duration":0.2752289999999995,"durationTicks":192,"midi":59,"name":"B3","ticks":20928,"time":29.999961,"velocity":0.3937007874015748},{"duration":1.1009160000000016,"durationTicks":768,"midi":57,"name":"A3","ticks":21120,"time":30.27519,"velocity":0.3937007874015748},{"duration":0.2752289999999995,"durationTicks":192,"midi":54,"name":"F#3","ticks":21888,"time":31.376106,"velocity":0.3937007874015748},{"duration":0.2752289999999995,"durationTicks":192,"midi":61,"name":"C#4","ticks":22080,"time":31.651335,"velocity":0.3937007874015748},{"duration":0.27522900000000305,"durationTicks":192,"midi":61,"name":"C#4","ticks":22272,"time":31.926564,"velocity":0.3937007874015748},{"duration":0.27522899999999595,"durationTicks":192,"midi":59,"name":"B3","ticks":22464,"time":32.201793,"velocity":0.3937007874015748},{"duration":0.550457999999999,"durationTicks":384,"midi":57,"name":"A3","ticks":22656,"time":32.477022,"velocity":0.3937007874015748},{"duration":0.5504580000000061,"durationTicks":384,"midi":59,"name":"B3","ticks":23040,"time":33.02748,"velocity":0.3937007874015748},{"duration":0.27522899999999595,"durationTicks":192,"midi":54,"name":"F#3","ticks":23424,"time":33.577938,"velocity":0.3937007874015748},{"duration":0.27522900000000305,"durationTicks":192,"midi":61,"name":"C#4","ticks":23616,"time":33.853167,"velocity":0.3937007874015748},{"duration":0.550457999999999,"durationTicks":384,"midi":59,"name":"B3","ticks":23808,"time":34.128396,"velocity":0.3937007874015748},{"duration":0.550457999999999,"durationTicks":384,"midi":57,"name":"A3","ticks":24192,"time":34.678854,"velocity":0.3937007874015748},{"duration":0.550457999999999,"durationTicks":384,"midi":59,"name":"B3","ticks":24576,"time":35.229312,"velocity":0.3937007874015748},{"duration":0.27522900000000305,"durationTicks":192,"midi":59,"name":"B3","ticks":24960,"time":35.77977,"velocity":0.3937007874015748},{"duration":2.201831999999996,"durationTicks":1536,"midi":61,"name":"C#4","ticks":25152,"time":36.054999,"velocity":0.3937007874015748},{"duration":0.27522899999999595,"durationTicks":192,"midi":61,"name":"C#4","ticks":27840,"time":39.908205,"velocity":0.3937007874015748},{"duration":0.27522900000000305,"durationTicks":192,"midi":61,"name":"C#4","ticks":28032,"time":40.183434,"velocity":0.3937007874015748},{"duration":0.27522899999999595,"durationTicks":192,"midi":66,"name":"F#4","ticks":28224,"time":40.458663,"velocity":0.3937007874015748},{"duration":0.27522900000000305,"durationTicks":192,"midi":66,"name":"F#4","ticks":28416,"time":40.733892,"velocity":0.3937007874015748},{"duration":0.27522900000000305,"durationTicks":192,"midi":64,"name":"E4","ticks":28608,"time":41.009121,"velocity":0.3937007874015748},{"duration":0.550457999999999,"durationTicks":384,"midi":61,"name":"C#4","ticks":28800,"time":41.28435,"velocity":0.3937007874015748},{"duration":0.27522899999999595,"durationTicks":192,"midi":61,"name":"C#4","ticks":29184,"time":41.834808,"velocity":0.3937007874015748},{"duration":0.27522900000000305,"durationTicks":192,"midi":61,"name":"C#4","ticks":29376,"time":42.110037,"velocity":0.3937007874015748},{"duration":0.550457999999999,"durationTicks":384,"midi":66,"name":"F#4","ticks":29568,"time":42.385266,"velocity":0.3937007874015748},{"duration":0.27522900000000305,"durationTicks":192,"midi":66,"name":"F#4","ticks":29952,"time":42.935724,"velocity":0.3937007874015748},{"duration":0.27522899999999595,"durationTicks":192,"midi":64,"name":"E4","ticks":30144,"time":43.210953,"velocity":0.3937007874015748},{"duration":0.550457999999999,"durationTicks":384,"midi":61,"name":"C#4","ticks":30336,"time":43.486182,"velocity":0.3937007874015748},{"duration":0.550457999999999,"durationTicks":384,"midi":62,"name":"D4","ticks":30720,"time":44.03664,"velocity":0.3937007874015748},{"duration":2.477061000000006,"durationTicks":1728,"midi":64,"name":"E4","ticks":31104,"time":44.587098,"velocity":0.3937007874015748},{"duration":0.8256870000000021,"durationTicks":576,"midi":66,"name":"F#4","ticks":34368,"time":49.265991,"velocity":0.3937007874015748},{"duration":0.27522899999999595,"durationTicks":192,"midi":66,"name":"F#4","ticks":34944,"time":50.091678,"velocity":0.3937007874015748},{"duration":0.5504580000000061,"durationTicks":384,"midi":66,"name":"F#4","ticks":35136,"time":50.366907,"velocity":0.3937007874015748},{"duration":0.27522899999999595,"durationTicks":192,"midi":64,"name":"E4","ticks":35520,"time":50.917365000000004,"velocity":0.3937007874015748},{"duration":0.27522900000000305,"durationTicks":192,"midi":66,"name":"F#4","ticks":35712,"time":51.192594,"velocity":0.3937007874015748},{"duration":0.550457999999999,"durationTicks":384,"midi":66,"name":"F#4","ticks":35904,"time":51.467823,"velocity":0.3937007874015748},{"duration":0.27522899999999595,"durationTicks":192,"midi":66,"name":"F#4","ticks":36288,"time":52.018281,"velocity":0.3937007874015748},{"duration":0.27522900000000305,"durationTicks":192,"midi":66,"name":"F#4","ticks":36480,"time":52.29351,"velocity":0.3937007874015748},{"duration":0.550457999999999,"durationTicks":384,"midi":66,"name":"F#4","ticks":36672,"time":52.568739,"velocity":0.3937007874015748},{"duration":0.550457999999999,"durationTicks":384,"midi":68,"name":"G#4","ticks":37056,"time":53.119197,"velocity":0.3937007874015748},{"duration":0.8256870000000021,"durationTicks":576,"midi":64,"name":"E4","ticks":37440,"time":53.669655,"velocity":0.3937007874015748},{"duration":0.27522899999999595,"durationTicks":192,"midi":66,"name":"F#4","ticks":38016,"time":54.495342,"velocity":0.3937007874015748},{"duration":0.5504580000000061,"durationTicks":384,"midi":66,"name":"F#4","ticks":38208,"time":54.770571,"velocity":0.3937007874015748},{"duration":0.27522899999999595,"durationTicks":192,"midi":64,"name":"E4","ticks":38592,"time":55.321029,"velocity":0.3937007874015748},{"duration":0.27522900000000305,"durationTicks":192,"midi":66,"name":"F#4","ticks":38784,"time":55.596258,"velocity":0.3937007874015748},{"duration":0.27522899999999595,"durationTicks":192,"midi":66,"name":"F#4","ticks":38976,"time":55.871487,"velocity":0.3937007874015748},{"duration":0.27522900000000305,"durationTicks":192,"midi":66,"name":"F#4","ticks":39168,"time":56.146716,"velocity":0.3937007874015748},{"duration":0.27522899999999595,"durationTicks":192,"midi":66,"name":"F#4","ticks":39360,"time":56.421945,"velocity":0.3937007874015748},{"duration":0.27522900000000305,"durationTicks":192,"midi":66,"name":"F#4","ticks":39552,"time":56.697174,"velocity":0.3937007874015748},{"duration":0.550457999999999,"durationTicks":384,"midi":66,"name":"F#4","ticks":39744,"time":56.972403,"velocity":0.3937007874015748},{"duration":0.550457999999999,"durationTicks":384,"midi":64,"name":"E4","ticks":40128,"time":57.522861,"velocity":0.3937007874015748},{"duration":0.550457999999999,"durationTicks":384,"midi":66,"name":"F#4","ticks":40512,"time":58.073319,"velocity":0.3937007874015748},{"duration":0.27522900000000305,"durationTicks":192,"midi":66,"name":"F#4","ticks":40896,"time":58.623777,"velocity":0.3937007874015748},{"duration":0.27522900000000305,"durationTicks":192,"midi":66,"name":"F#4","ticks":41088,"time":58.899006,"velocity":0.3937007874015748},{"duration":0.550457999999999,"durationTicks":384,"midi":66,"name":"F#4","ticks":41280,"time":59.174235,"velocity":0.3937007874015748},{"duration":0.550457999999999,"durationTicks":384,"midi":64,"name":"E4","ticks":41664,"time":59.724693,"velocity":0.3937007874015748},{"duration":0.550457999999999,"durationTicks":384,"midi":66,"name":"F#4","ticks":42048,"time":60.275151,"velocity":0.3937007874015748},{"duration":0.27522900000000305,"durationTicks":192,"midi":66,"name":"F#4","ticks":42432,"time":60.825609,"velocity":0.3937007874015748},{"duration":0.27522899999999595,"durationTicks":192,"midi":66,"name":"F#4","ticks":42624,"time":61.100838,"velocity":0.3937007874015748},{"duration":0.550457999999999,"durationTicks":384,"midi":66,"name":"F#4","ticks":42816,"time":61.376067,"velocity":0.3937007874015748},{"duration":0.550457999999999,"durationTicks":384,"midi":68,"name":"G#4","ticks":43200,"time":61.926525,"velocity":0.3937007874015748},{"duration":0.5504580000000061,"durationTicks":384,"midi":64,"name":"E4","ticks":43584,"time":62.476983,"velocity":0.3937007874015748},{"duration":0.27522899999999595,"durationTicks":192,"midi":66,"name":"F#4","ticks":43968,"time":63.027441,"velocity":0.3937007874015748},{"duration":0.27522900000000305,"durationTicks":192,"midi":66,"name":"F#4","ticks":44160,"time":63.30267,"velocity":0.3937007874015748},{"duration":0.5504579999999919,"durationTicks":384,"midi":66,"name":"F#4","ticks":44352,"time":63.577899,"velocity":0.3937007874015748},{"duration":0.5504580000000061,"durationTicks":384,"midi":64,"name":"E4","ticks":44736,"time":64.128357,"velocity":0.3937007874015748},{"duration":0.5504580000000061,"durationTicks":384,"midi":66,"name":"F#4","ticks":45120,"time":64.678815,"velocity":0.3937007874015748},{"duration":0.27522899999999595,"durationTicks":192,"midi":66,"name":"F#4","ticks":45504,"time":65.229273,"velocity":0.3937007874015748},{"duration":0.27522899999999595,"durationTicks":192,"midi":66,"name":"F#4","ticks":45696,"time":65.504502,"velocity":0.3937007874015748},{"duration":0.5504580000000061,"durationTicks":384,"midi":66,"name":"F#4","ticks":45888,"time":65.779731,"velocity":0.3937007874015748},{"duration":0.5504579999999919,"durationTicks":384,"midi":64,"name":"E4","ticks":46272,"time":66.330189,"velocity":0.3937007874015748},{"duration":0.5504580000000061,"durationTicks":384,"midi":66,"name":"F#4","ticks":46656,"time":66.880647,"velocity":0.3937007874015748},{"duration":0.27522899999999595,"durationTicks":192,"midi":66,"name":"F#4","ticks":47040,"time":67.431105,"velocity":0.3937007874015748},{"duration":0.27522899999999595,"durationTicks":192,"midi":66,"name":"F#4","ticks":47232,"time":67.706334,"velocity":0.3937007874015748},{"duration":0.27522900000001016,"durationTicks":192,"midi":66,"name":"F#4","ticks":47424,"time":67.981563,"velocity":0.3937007874015748},{"duration":0.27522899999999595,"durationTicks":192,"midi":66,"name":"F#4","ticks":47616,"time":68.256792,"velocity":0.3937007874015748},{"duration":0.27522899999999595,"durationTicks":192,"midi":64,"name":"E4","ticks":47808,"time":68.532021,"velocity":0.3937007874015748},{"duration":0.5504580000000061,"durationTicks":384,"midi":66,"name":"F#4","ticks":48000,"time":68.80725,"velocity":0.3937007874015748},{"duration":0.27522899999999595,"durationTicks":192,"midi":64,"name":"E4","ticks":48384,"time":69.357708,"velocity":0.3937007874015748},{"duration":0.27522899999999595,"durationTicks":192,"midi":64,"name":"E4","ticks":48576,"time":69.632937,"velocity":0.3937007874015748},{"duration":1.1009160000000122,"durationTicks":768,"midi":64,"name":"E4","ticks":48768,"time":69.908166,"velocity":0.3937007874015748},{"duration":0.27522899999999595,"durationTicks":192,"midi":66,"name":"F#4","ticks":49728,"time":71.284311,"velocity":0.3937007874015748},{"duration":0.27522899999999595,"durationTicks":192,"midi":64,"name":"E4","ticks":49920,"time":71.55954,"velocity":0.3937007874015748},{"duration":0.27522900000001016,"durationTicks":192,"midi":64,"name":"E4","ticks":50112,"time":71.834769,"velocity":0.3937007874015748},{"duration":0.5504579999999919,"durationTicks":384,"midi":64,"name":"E4","ticks":50304,"time":72.109998,"velocity":0.3937007874015748},{"duration":0.5504580000000061,"durationTicks":384,"midi":61,"name":"C#4","ticks":50688,"time":72.660456,"velocity":0.3937007874015748},{"duration":0.27522899999999595,"durationTicks":192,"midi":61,"name":"C#4","ticks":51072,"time":73.210914,"velocity":0.3937007874015748},{"duration":0.27522899999999595,"durationTicks":192,"midi":62,"name":"D4","ticks":51264,"time":73.486143,"velocity":0.3937007874015748},{"duration":0.5504580000000061,"durationTicks":384,"midi":61,"name":"C#4","ticks":51456,"time":73.761372,"velocity":0.3937007874015748},{"duration":0.5504580000000061,"durationTicks":384,"midi":59,"name":"B3","ticks":51840,"time":74.31183,"velocity":0.3937007874015748},{"duration":0.5504579999999919,"durationTicks":384,"midi":61,"name":"C#4","ticks":52224,"time":74.862288,"velocity":0.3937007874015748},{"duration":0.5504580000000061,"durationTicks":384,"midi":61,"name":"C#4","ticks":52608,"time":75.412746,"velocity":0.3937007874015748},{"duration":0.27522899999999595,"durationTicks":192,"midi":54,"name":"F#3","ticks":52992,"time":75.963204,"velocity":0.3937007874015748},{"duration":0.27522899999999595,"durationTicks":192,"midi":61,"name":"C#4","ticks":53184,"time":76.238433,"velocity":0.3937007874015748},{"duration":0.27522900000001016,"durationTicks":192,"midi":61,"name":"C#4","ticks":53376,"time":76.513662,"velocity":0.3937007874015748},{"duration":0.27522899999999595,"durationTicks":192,"midi":61,"name":"C#4","ticks":53568,"time":76.788891,"velocity":0.3937007874015748},{"duration":0.27522899999999595,"durationTicks":192,"midi":61,"name":"C#4","ticks":53760,"time":77.06412,"velocity":0.3937007874015748},{"duration":0.27522899999999595,"durationTicks":192,"midi":62,"name":"D4","ticks":53952,"time":77.339349,"velocity":0.3937007874015748},{"duration":0.5504580000000061,"durationTicks":384,"midi":61,"name":"C#4","ticks":54144,"time":77.614578,"velocity":0.3937007874015748},{"duration":0.27522899999999595,"durationTicks":192,"midi":61,"name":"C#4","ticks":54528,"time":78.165036,"velocity":0.3937007874015748},{"duration":0.27522900000001016,"durationTicks":192,"midi":59,"name":"B3","ticks":54720,"time":78.440265,"velocity":0.3937007874015748},{"duration":1.100915999999998,"durationTicks":768,"midi":57,"name":"A3","ticks":54912,"time":78.715494,"velocity":0.3937007874015748},{"duration":0.27522899999999595,"durationTicks":192,"midi":54,"name":"F#3","ticks":55680,"time":79.81641,"velocity":0.3937007874015748},{"duration":0.27522899999999595,"durationTicks":192,"midi":61,"name":"C#4","ticks":55872,"time":80.091639,"velocity":0.3937007874015748},{"duration":0.27522900000001016,"durationTicks":192,"midi":61,"name":"C#4","ticks":56064,"time":80.366868,"velocity":0.3937007874015748},{"duration":0.27522899999999595,"durationTicks":192,"midi":59,"name":"B3","ticks":56256,"time":80.642097,"velocity":0.3937007874015748},{"duration":1.100915999999998,"durationTicks":768,"midi":57,"name":"A3","ticks":56448,"time":80.917326,"velocity":0.3937007874015748},{"duration":0.5504580000000061,"durationTicks":384,"midi":61,"name":"C#4","ticks":57216,"time":82.018242,"velocity":0.3937007874015748},{"duration":0.5504579999999919,"durationTicks":384,"midi":59,"name":"B3","ticks":57600,"time":82.5687,"velocity":0.3937007874015748},{"duration":0.5504580000000061,"durationTicks":384,"midi":57,"name":"A3","ticks":57984,"time":83.119158,"velocity":0.3937007874015748},{"duration":0.5504579999999919,"durationTicks":384,"midi":59,"name":"B3","ticks":58368,"time":83.669616,"velocity":0.3937007874015748},{"duration":0.27522900000001016,"durationTicks":192,"midi":59,"name":"B3","ticks":58752,"time":84.220074,"velocity":0.3937007874015748},{"duration":2.201831999999996,"durationTicks":1536,"midi":61,"name":"C#4","ticks":58944,"time":84.495303,"velocity":0.3937007874015748},{"duration":0.27522899999999595,"durationTicks":192,"midi":61,"name":"C#4","ticks":61632,"time":88.348509,"velocity":0.3937007874015748},{"duration":0.27522899999999595,"durationTicks":192,"midi":61,"name":"C#4","ticks":61824,"time":88.623738,"velocity":0.3937007874015748},{"duration":0.27522899999999595,"durationTicks":192,"midi":66,"name":"F#4","ticks":62016,"time":88.898967,"velocity":0.3937007874015748},{"duration":0.27522900000001016,"durationTicks":192,"midi":66,"name":"F#4","ticks":62208,"time":89.174196,"velocity":0.3937007874015748},{"duration":0.27522899999999595,"durationTicks":192,"midi":64,"name":"E4","ticks":62400,"time":89.449425,"velocity":0.3937007874015748},{"duration":0.5504580000000061,"durationTicks":384,"midi":61,"name":"C#4","ticks":62592,"time":89.724654,"velocity":0.3937007874015748},{"duration":0.27522899999999595,"durationTicks":192,"midi":61,"name":"C#4","ticks":62976,"time":90.27511200000001,"velocity":0.3937007874015748},{"duration":0.27522899999999595,"durationTicks":192,"midi":61,"name":"C#4","ticks":63168,"time":90.550341,"velocity":0.3937007874015748},{"duration":0.5504580000000061,"durationTicks":384,"midi":66,"name":"F#4","ticks":63360,"time":90.82557,"velocity":0.3937007874015748},{"duration":0.27522899999999595,"durationTicks":192,"midi":66,"name":"F#4","ticks":63744,"time":91.376028,"velocity":0.3937007874015748},{"duration":0.27522899999999595,"durationTicks":192,"midi":64,"name":"E4","ticks":63936,"time":91.651257,"velocity":0.3937007874015748},{"duration":0.5504580000000061,"durationTicks":384,"midi":61,"name":"C#4","ticks":64128,"time":91.926486,"velocity":0.3937007874015748},{"duration":0.5504579999999919,"durationTicks":384,"midi":62,"name":"D4","ticks":64512,"time":92.476944,"velocity":0.3937007874015748},{"duration":2.477061000000006,"durationTicks":1728,"midi":64,"name":"E4","ticks":64896,"time":93.027402,"velocity":0.3937007874015748},{"duration":0.27522900000001016,"durationTicks":192,"midi":61,"name":"C#4","ticks":67584,"time":96.880608,"velocity":0.3937007874015748},{"duration":0.27522899999999595,"durationTicks":192,"midi":61,"name":"C#4","ticks":67776,"time":97.155837,"velocity":0.3937007874015748},{"duration":0.27522899999999595,"durationTicks":192,"midi":61,"name":"C#4","ticks":67968,"time":97.431066,"velocity":0.3937007874015748},{"duration":0.27522900000001016,"durationTicks":192,"midi":66,"name":"F#4","ticks":68160,"time":97.706295,"velocity":0.3937007874015748},{"duration":0.27522899999999595,"durationTicks":192,"midi":66,"name":"F#4","ticks":68352,"time":97.98152400000001,"velocity":0.3937007874015748},{"duration":0.27522899999999595,"durationTicks":192,"midi":64,"name":"E4","ticks":68544,"time":98.256753,"velocity":0.3937007874015748},{"duration":0.5504580000000061,"durationTicks":384,"midi":61,"name":"C#4","ticks":68736,"time":98.531982,"velocity":0.3937007874015748},{"duration":0.27522899999999595,"durationTicks":192,"midi":61,"name":"C#4","ticks":69120,"time":99.08244,"velocity":0.3937007874015748},{"duration":0.27522899999999595,"durationTicks":192,"midi":61,"name":"C#4","ticks":69312,"time":99.357669,"velocity":0.3937007874015748},{"duration":0.27522900000001016,"durationTicks":192,"midi":61,"name":"C#4","ticks":69504,"time":99.632898,"velocity":0.3937007874015748},{"duration":0.27522899999999595,"durationTicks":192,"midi":69,"name":"A4","ticks":69696,"time":99.90812700000001,"velocity":0.3937007874015748},{"duration":0.5504579999999919,"durationTicks":384,"midi":68,"name":"G#4","ticks":69888,"time":100.183356,"velocity":0.3937007874015748},{"duration":0.8256870000000021,"durationTicks":576,"midi":69,"name":"A4","ticks":70272,"time":100.733814,"velocity":0.3937007874015748},{"duration":0.5504580000000061,"durationTicks":384,"midi":68,"name":"G#4","ticks":70848,"time":101.559501,"velocity":0.3937007874015748},{"duration":0.8256870000000021,"durationTicks":576,"midi":66,"name":"F#4","ticks":71232,"time":102.109959,"velocity":0.3937007874015748},{"duration":0.27522899999999595,"durationTicks":192,"midi":66,"name":"F#4","ticks":71808,"time":102.935646,"velocity":0.3937007874015748},{"duration":0.5504580000000061,"durationTicks":384,"midi":66,"name":"F#4","ticks":72000,"time":103.210875,"velocity":0.3937007874015748},{"duration":0.27522899999999595,"durationTicks":192,"midi":64,"name":"E4","ticks":72384,"time":103.76133300000001,"velocity":0.3937007874015748},{"duration":0.27522899999999595,"durationTicks":192,"midi":66,"name":"F#4","ticks":72576,"time":104.036562,"velocity":0.3937007874015748},{"duration":0.5504580000000061,"durationTicks":384,"midi":66,"name":"F#4","ticks":72768,"time":104.311791,"velocity":0.3937007874015748},{"duration":0.27522899999999595,"durationTicks":192,"midi":66,"name":"F#4","ticks":73152,"time":104.862249,"velocity":0.3937007874015748},{"duration":0.27522899999999595,"durationTicks":192,"midi":66,"name":"F#4","ticks":73344,"time":105.137478,"velocity":0.3937007874015748},{"duration":0.5504580000000061,"durationTicks":384,"midi":66,"name":"F#4","ticks":73536,"time":105.412707,"velocity":0.3937007874015748},{"duration":0.5504579999999919,"durationTicks":384,"midi":68,"name":"G#4","ticks":73920,"time":105.963165,"velocity":0.3937007874015748},{"duration":0.8256870000000021,"durationTicks":576,"midi":64,"name":"E4","ticks":74304,"time":106.513623,"velocity":0.3937007874015748},{"duration":0.27522899999999595,"durationTicks":192,"midi":66,"name":"F#4","ticks":74880,"time":107.33931,"velocity":0.3937007874015748},{"duration":0.5504580000000061,"durationTicks":384,"midi":66,"name":"F#4","ticks":75072,"time":107.614539,"velocity":0.3937007874015748},{"duration":0.27522899999999595,"durationTicks":192,"midi":64,"name":"E4","ticks":75456,"time":108.164997,"velocity":0.3937007874015748},{"duration":0.27522900000001016,"durationTicks":192,"midi":66,"name":"F#4","ticks":75648,"time":108.440226,"velocity":0.3937007874015748},{"duration":0.27522899999999595,"durationTicks":192,"midi":66,"name":"F#4","ticks":75840,"time":108.715455,"velocity":0.3937007874015748},{"duration":0.27522899999999595,"durationTicks":192,"midi":66,"name":"F#4","ticks":76032,"time":108.990684,"velocity":0.3937007874015748},{"duration":0.27522899999999595,"durationTicks":192,"midi":66,"name":"F#4","ticks":76224,"time":109.265913,"velocity":0.3937007874015748},{"duration":0.27522900000001016,"durationTicks":192,"midi":66,"name":"F#4","ticks":76416,"time":109.541142,"velocity":0.3937007874015748},{"duration":0.5504579999999919,"durationTicks":384,"midi":66,"name":"F#4","ticks":76608,"time":109.816371,"velocity":0.3937007874015748},{"duration":0.5504580000000061,"durationTicks":384,"midi":64,"name":"E4","ticks":76992,"time":110.366829,"velocity":0.3937007874015748},{"duration":0.5504579999999919,"durationTicks":384,"midi":66,"name":"F#4","ticks":77376,"time":110.917287,"velocity":0.3937007874015748},{"duration":0.27522900000001016,"durationTicks":192,"midi":66,"name":"F#4","ticks":77760,"time":111.467745,"velocity":0.3937007874015748},{"duration":0.27522899999999595,"durationTicks":192,"midi":66,"name":"F#4","ticks":77952,"time":111.742974,"velocity":0.3937007874015748},{"duration":0.5504580000000061,"durationTicks":384,"midi":66,"name":"F#4","ticks":78144,"time":112.018203,"velocity":0.3937007874015748},{"duration":0.5504579999999919,"durationTicks":384,"midi":64,"name":"E4","ticks":78528,"time":112.568661,"velocity":0.3937007874015748},{"duration":0.5504580000000061,"durationTicks":384,"midi":66,"name":"F#4","ticks":78912,"time":113.119119,"velocity":0.3937007874015748},{"duration":0.27522899999999595,"durationTicks":192,"midi":66,"name":"F#4","ticks":79296,"time":113.669577,"velocity":0.3937007874015748},{"duration":0.27522899999999595,"durationTicks":192,"midi":66,"name":"F#4","ticks":79488,"time":113.944806,"velocity":0.3937007874015748},{"duration":0.5504580000000061,"durationTicks":384,"midi":66,"name":"F#4","ticks":79680,"time":114.220035,"velocity":0.3937007874015748},{"duration":0.5504579999999919,"durationTicks":384,"midi":68,"name":"G#4","ticks":80064,"time":114.770493,"velocity":0.3937007874015748},{"duration":0.5504580000000061,"durationTicks":384,"midi":64,"name":"E4","ticks":80448,"time":115.320951,"velocity":0.3937007874015748},{"duration":0.27522899999999595,"durationTicks":192,"midi":66,"name":"F#4","ticks":80832,"time":115.871409,"velocity":0.3937007874015748},{"duration":0.27522900000001016,"durationTicks":192,"midi":66,"name":"F#4","ticks":81024,"time":116.146638,"velocity":0.3937007874015748},{"duration":0.5504579999999919,"durationTicks":384,"midi":66,"name":"F#4","ticks":81216,"time":116.421867,"velocity":0.3937007874015748},{"duration":0.5504580000000061,"durationTicks":384,"midi":64,"name":"E4","ticks":81600,"time":116.972325,"velocity":0.3937007874015748},{"duration":0.5504579999999919,"durationTicks":384,"midi":66,"name":"F#4","ticks":81984,"time":117.522783,"velocity":0.3937007874015748},{"duration":0.27522900000001016,"durationTicks":192,"midi":66,"name":"F#4","ticks":82368,"time":118.073241,"velocity":0.3937007874015748},{"duration":0.27522899999999595,"durationTicks":192,"midi":66,"name":"F#4","ticks":82560,"time":118.34847,"velocity":0.3937007874015748},{"duration":0.5504579999999919,"durationTicks":384,"midi":66,"name":"F#4","ticks":82752,"time":118.623699,"velocity":0.3937007874015748},{"duration":0.5504580000000061,"durationTicks":384,"midi":64,"name":"E4","ticks":83136,"time":119.174157,"velocity":0.3937007874015748},{"duration":1.100915999999998,"durationTicks":768,"midi":66,"name":"F#4","ticks":83520,"time":119.724615,"velocity":0.3937007874015748},{"duration":0.27522900000001016,"durationTicks":192,"midi":66,"name":"F#4","ticks":84480,"time":121.10076,"velocity":0.3937007874015748},{"duration":0.27522899999999595,"durationTicks":192,"midi":69,"name":"A4","ticks":84672,"time":121.375989,"velocity":0.3937007874015748},{"duration":1.6513740000000041,"durationTicks":1152,"midi":68,"name":"G#4","ticks":84864,"time":121.651218,"velocity":0.3937007874015748},{"duration":0.27522899999999595,"durationTicks":192,"midi":66,"name":"F#4","ticks":86016,"time":123.302592,"velocity":0.3937007874015748},{"duration":0.5504580000000061,"durationTicks":384,"midi":68,"name":"G#4","ticks":86208,"time":123.577821,"velocity":0.3937007874015748},{"duration":1.100915999999998,"durationTicks":768,"midi":69,"name":"A4","ticks":86592,"time":124.128279,"velocity":0.3937007874015748},{"duration":1.100915999999998,"durationTicks":768,"midi":68,"name":"G#4","ticks":87360,"time":125.229195,"velocity":0.3937007874015748},{"duration":1.100915999999998,"durationTicks":768,"midi":69,"name":"A4","ticks":88128,"time":126.330111,"velocity":0.3937007874015748},{"duration":1.1009160000000122,"durationTicks":768,"midi":68,"name":"G#4","ticks":88896,"time":127.431027,"velocity":0.3937007874015748},{"duration":1.1009159999999838,"durationTicks":768,"midi":66,"name":"F#4","ticks":89664,"time":128.531943,"velocity":0.3937007874015748},{"duration":0.27522899999999595,"durationTicks":192,"midi":66,"name":"F#4","ticks":90624,"time":129.908088,"velocity":0.3937007874015748},{"duration":0.27522900000002437,"durationTicks":192,"midi":69,"name":"A4","ticks":90816,"time":130.183317,"velocity":0.3937007874015748},{"duration":1.6513739999999757,"durationTicks":1152,"midi":68,"name":"G#4","ticks":91008,"time":130.458546,"velocity":0.3937007874015748},{"duration":0.27522899999999595,"durationTicks":192,"midi":68,"name":"G#4","ticks":92352,"time":132.385149,"velocity":0.3937007874015748},{"duration":0.27522899999999595,"durationTicks":192,"midi":66,"name":"F#4","ticks":92544,"time":132.660378,"velocity":0.3937007874015748},{"duration":0.27522899999999595,"durationTicks":192,"midi":68,"name":"G#4","ticks":92736,"time":132.935607,"velocity":0.3937007874015748},{"duration":0.5504579999999919,"durationTicks":384,"midi":68,"name":"G#4","ticks":92928,"time":133.210836,"velocity":0.3937007874015748},{"duration":0.5504580000000203,"durationTicks":384,"midi":68,"name":"G#4","ticks":93312,"time":133.761294,"velocity":0.3937007874015748},{"duration":0.27522899999999595,"durationTicks":192,"midi":66,"name":"F#4","ticks":93696,"time":134.311752,"velocity":0.3937007874015748},{"duration":0.27522899999999595,"durationTicks":192,"midi":68,"name":"G#4","ticks":93888,"time":134.586981,"velocity":0.3937007874015748},{"duration":0.27522899999999595,"durationTicks":192,"midi":66,"name":"F#4","ticks":94080,"time":134.86221,"velocity":0.3937007874015748},{"duration":0.27522899999999595,"durationTicks":192,"midi":68,"name":"G#4","ticks":94272,"time":135.137439,"velocity":0.3937007874015748},{"duration":0.5504579999999919,"durationTicks":384,"midi":68,"name":"G#4","ticks":94464,"time":135.412668,"velocity":0.3937007874015748},{"duration":0.5504580000000203,"durationTicks":384,"midi":68,"name":"G#4","ticks":94848,"time":135.963126,"velocity":0.3937007874015748},{"duration":0.27522899999999595,"durationTicks":192,"midi":66,"name":"F#4","ticks":95232,"time":136.513584,"velocity":0.3937007874015748},{"duration":0.27522899999999595,"durationTicks":192,"midi":69,"name":"A4","ticks":95424,"time":136.788813,"velocity":0.3937007874015748},{"duration":2.477060999999992,"durationTicks":1728,"midi":68,"name":"G#4","ticks":95616,"time":137.064042,"velocity":0.3937007874015748},{"duration":0.8256870000000163,"durationTicks":576,"midi":66,"name":"F#4","ticks":97344,"time":139.541103,"velocity":0.3937007874015748},{"duration":0.27522899999999595,"durationTicks":192,"midi":66,"name":"F#4","ticks":97920,"time":140.36679,"velocity":0.3937007874015748},{"duration":0.5504579999999919,"durationTicks":384,"midi":66,"name":"F#4","ticks":98112,"time":140.642019,"velocity":0.3937007874015748},{"duration":0.27522899999999595,"durationTicks":192,"midi":64,"name":"E4","ticks":98496,"time":141.192477,"velocity":0.3937007874015748},{"duration":0.27522899999999595,"durationTicks":192,"midi":66,"name":"F#4","ticks":98688,"time":141.467706,"velocity":0.3937007874015748},{"duration":0.5504580000000203,"durationTicks":384,"midi":66,"name":"F#4","ticks":98880,"time":141.742935,"velocity":0.3937007874015748},{"duration":0.27522899999999595,"durationTicks":192,"midi":66,"name":"F#4","ticks":99264,"time":142.293393,"velocity":0.3937007874015748},{"duration":0.27522899999999595,"durationTicks":192,"midi":66,"name":"F#4","ticks":99456,"time":142.568622,"velocity":0.3937007874015748},{"duration":0.5504579999999919,"durationTicks":384,"midi":66,"name":"F#4","ticks":99648,"time":142.843851,"velocity":0.3937007874015748},{"duration":0.5504580000000203,"durationTicks":384,"midi":68,"name":"G#4","ticks":100032,"time":143.394309,"velocity":0.3937007874015748},{"duration":0.8256869999999878,"durationTicks":576,"midi":64,"name":"E4","ticks":100416,"time":143.944767,"velocity":0.3937007874015748},{"duration":0.27522899999999595,"durationTicks":192,"midi":66,"name":"F#4","ticks":100992,"time":144.770454,"velocity":0.3937007874015748},{"duration":0.5504579999999919,"durationTicks":384,"midi":66,"name":"F#4","ticks":101184,"time":145.045683,"velocity":0.3937007874015748},{"duration":0.27522900000002437,"durationTicks":192,"midi":64,"name":"E4","ticks":101568,"time":145.596141,"velocity":0.3937007874015748},{"duration":0.27522899999999595,"durationTicks":192,"midi":66,"name":"F#4","ticks":101760,"time":145.87137,"velocity":0.3937007874015748},{"duration":0.27522899999999595,"durationTicks":192,"midi":66,"name":"F#4","ticks":101952,"time":146.146599,"velocity":0.3937007874015748},{"duration":0.27522899999999595,"durationTicks":192,"midi":66,"name":"F#4","ticks":102144,"time":146.421828,"velocity":0.3937007874015748},{"duration":0.27522899999999595,"durationTicks":192,"midi":66,"name":"F#4","ticks":102336,"time":146.697057,"velocity":0.3937007874015748},{"duration":0.27522899999999595,"durationTicks":192,"midi":66,"name":"F#4","ticks":102528,"time":146.972286,"velocity":0.3937007874015748},{"duration":0.5504580000000203,"durationTicks":384,"midi":66,"name":"F#4","ticks":102720,"time":147.247515,"velocity":0.3937007874015748},{"duration":0.5504579999999919,"durationTicks":384,"midi":64,"name":"E4","ticks":103104,"time":147.797973,"velocity":0.3937007874015748},{"duration":0.5504579999999919,"durationTicks":384,"midi":66,"name":"F#4","ticks":103488,"time":148.348431,"velocity":0.3937007874015748},{"duration":0.27522899999999595,"durationTicks":192,"midi":66,"name":"F#4","ticks":103872,"time":148.898889,"velocity":0.3937007874015748},{"duration":0.27522899999999595,"durationTicks":192,"midi":66,"name":"F#4","ticks":104064,"time":149.174118,"velocity":0.3937007874015748},{"duration":0.5504580000000203,"durationTicks":384,"midi":66,"name":"F#4","ticks":104256,"time":149.449347,"velocity":0.3937007874015748},{"duration":0.5504579999999919,"durationTicks":384,"midi":64,"name":"E4","ticks":104640,"time":149.999805,"velocity":0.3937007874015748},{"duration":0.5504579999999919,"durationTicks":384,"midi":66,"name":"F#4","ticks":105024,"time":150.550263,"velocity":0.3937007874015748},{"duration":0.27522899999999595,"durationTicks":192,"midi":66,"name":"F#4","ticks":105408,"time":151.100721,"velocity":0.3937007874015748},{"duration":0.27522900000002437,"durationTicks":192,"midi":66,"name":"F#4","ticks":105600,"time":151.37595,"velocity":0.3937007874015748},{"duration":0.5504579999999919,"durationTicks":384,"midi":66,"name":"F#4","ticks":105792,"time":151.651179,"velocity":0.3937007874015748},{"duration":0.5504579999999919,"durationTicks":384,"midi":68,"name":"G#4","ticks":106176,"time":152.201637,"velocity":0.3937007874015748},{"duration":0.5504579999999919,"durationTicks":384,"midi":64,"name":"E4","ticks":106560,"time":152.752095,"velocity":0.3937007874015748},{"duration":0.27522900000002437,"durationTicks":192,"midi":66,"name":"F#4","ticks":106944,"time":153.302553,"velocity":0.3937007874015748},{"duration":0.27522899999999595,"durationTicks":192,"midi":66,"name":"F#4","ticks":107136,"time":153.577782,"velocity":0.3937007874015748},{"duration":0.5504579999999919,"durationTicks":384,"midi":66,"name":"F#4","ticks":107328,"time":153.853011,"velocity":0.3937007874015748},{"duration":0.5504579999999919,"durationTicks":384,"midi":64,"name":"E4","ticks":107712,"time":154.403469,"velocity":0.3937007874015748},{"duration":0.5504580000000203,"durationTicks":384,"midi":66,"name":"F#4","ticks":108096,"time":154.953927,"velocity":0.3937007874015748},{"duration":0.27522899999999595,"durationTicks":192,"midi":66,"name":"F#4","ticks":108480,"time":155.504385,"velocity":0.3937007874015748},{"duration":0.27522899999999595,"durationTicks":192,"midi":66,"name":"F#4","ticks":108672,"time":155.779614,"velocity":0.3937007874015748},{"duration":0.5504579999999919,"durationTicks":384,"midi":66,"name":"F#4","ticks":108864,"time":156.054843,"velocity":0.3937007874015748},{"duration":0.27522899999999595,"durationTicks":192,"midi":73,"name":"C#5","ticks":109056,"time":156.330072,"velocity":0.3937007874015748},{"duration":0.27522899999999595,"durationTicks":192,"midi":76,"name":"E5","ticks":109248,"time":156.605301,"velocity":0.3937007874015748},{"duration":0.5504579999999919,"durationTicks":384,"midi":64,"name":"E4","ticks":109248,"time":156.605301,"velocity":0.3937007874015748},{"duration":0.27522899999999595,"durationTicks":192,"midi":73,"name":"C#5","ticks":109440,"time":156.88053,"velocity":0.3937007874015748},{"duration":0.8256870000000163,"durationTicks":576,"midi":66,"name":"F#4","ticks":109632,"time":157.155759,"velocity":0.3937007874015748},{"duration":0.8256870000000163,"durationTicks":576,"midi":78,"name":"F#5","ticks":109632,"time":157.155759,"velocity":0.3937007874015748},{"duration":0.27522899999999595,"durationTicks":192,"midi":66,"name":"F#4","ticks":110208,"time":157.981446,"velocity":0.3937007874015748},{"duration":0.8256869999999878,"durationTicks":576,"midi":81,"name":"A5","ticks":110208,"time":157.981446,"velocity":0.3937007874015748},{"duration":0.5504579999999919,"durationTicks":384,"midi":66,"name":"F#4","ticks":110400,"time":158.256675,"velocity":0.3937007874015748},{"duration":0.27522899999999595,"durationTicks":192,"midi":64,"name":"E4","ticks":110784,"time":158.807133,"velocity":0.3937007874015748},{"duration":1.6513740000000041,"durationTicks":1152,"midi":80,"name":"G#5","ticks":110784,"time":158.807133,"velocity":0.3937007874015748},{"duration":0.27522900000002437,"durationTicks":192,"midi":66,"name":"F#4","ticks":110976,"time":159.082362,"velocity":0.3937007874015748},{"duration":0.5504579999999919,"durationTicks":384,"midi":66,"name":"F#4","ticks":111168,"time":159.357591,"velocity":0.3937007874015748},{"duration":0.27522899999999595,"durationTicks":192,"midi":66,"name":"F#4","ticks":111552,"time":159.908049,"velocity":0.3937007874015748},{"duration":0.27522899999999595,"durationTicks":192,"midi":66,"name":"F#4","ticks":111744,"time":160.183278,"velocity":0.3937007874015748},{"duration":0.5504579999999919,"durationTicks":384,"midi":66,"name":"F#4","ticks":111936,"time":160.458507,"velocity":0.3937007874015748},{"duration":0.27522899999999595,"durationTicks":192,"midi":73,"name":"C#5","ticks":112128,"time":160.733736,"velocity":0.3937007874015748},{"duration":0.5504580000000203,"durationTicks":384,"midi":68,"name":"G#4","ticks":112320,"time":161.008965,"velocity":0.3937007874015748},{"duration":0.27522900000002437,"durationTicks":192,"midi":76,"name":"E5","ticks":112320,"time":161.008965,"velocity":0.3937007874015748},{"duration":0.27522899999999595,"durationTicks":192,"midi":73,"name":"C#5","ticks":112512,"time":161.284194,"velocity":0.3937007874015748},{"duration":0.8256869999999878,"durationTicks":576,"midi":81,"name":"A5","ticks":112704,"time":161.559423,"velocity":0.3937007874015748},{"duration":2.201831999999996,"durationTicks":1536,"midi":64,"name":"E4","ticks":112704,"time":161.559423,"velocity":0.3937007874015748},{"duration":0.27522899999999595,"durationTicks":192,"midi":61,"name":"C#4","ticks":113088,"time":162.109881,"velocity":0.3937007874015748},{"duration":0.27522899999999595,"durationTicks":192,"midi":61,"name":"C#4","ticks":113280,"time":162.38511,"velocity":0.3937007874015748},{"duration":0.8256870000000163,"durationTicks":576,"midi":80,"name":"G#5","ticks":113280,"time":162.38511,"velocity":0.3937007874015748},{"duration":0.27522899999999595,"durationTicks":192,"midi":61,"name":"C#4","ticks":113472,"time":162.660339,"velocity":0.3937007874015748},{"duration":0.27522900000002437,"durationTicks":192,"midi":61,"name":"C#4","ticks":113664,"time":162.935568,"velocity":0.3937007874015748},{"duration":1.6513739999999757,"durationTicks":1152,"midi":76,"name":"E5","ticks":113856,"time":163.210797,"velocity":0.3937007874015748},{"duration":0.27522899999999595,"durationTicks":192,"midi":62,"name":"D4","ticks":113856,"time":163.210797,"velocity":0.3937007874015748},{"duration":0.5504579999999919,"durationTicks":384,"midi":61,"name":"C#4","ticks":114048,"time":163.486026,"velocity":0.3937007874015748},{"duration":0.27522899999999595,"durationTicks":192,"midi":61,"name":"C#4","ticks":114432,"time":164.036484,"velocity":0.3937007874015748},{"duration":0.27522899999999595,"durationTicks":192,"midi":59,"name":"B3","ticks":114624,"time":164.311713,"velocity":0.3937007874015748},{"duration":1.1009160000000122,"durationTicks":768,"midi":57,"name":"A3","ticks":114816,"time":164.586942,"velocity":0.3937007874015748},{"duration":0.27522899999999595,"durationTicks":192,"midi":73,"name":"C#5","ticks":115200,"time":165.1374,"velocity":0.3937007874015748},{"duration":0.27522899999999595,"durationTicks":192,"midi":76,"name":"E5","ticks":115392,"time":165.412629,"velocity":0.3937007874015748},{"duration":0.27522899999999595,"durationTicks":192,"midi":73,"name":"C#5","ticks":115584,"time":165.687858,"velocity":0.3937007874015748},{"duration":0.8256869999999878,"durationTicks":576,"midi":78,"name":"F#5","ticks":115776,"time":165.963087,"velocity":0.3937007874015748},{"duration":0.8256869999999878,"durationTicks":576,"midi":66,"name":"F#4","ticks":115776,"time":165.963087,"velocity":0.3937007874015748},{"duration":0.27522900000002437,"durationTicks":192,"midi":66,"name":"F#4","ticks":116352,"time":166.788774,"velocity":0.3937007874015748},{"duration":0.8256870000000163,"durationTicks":576,"midi":81,"name":"A5","ticks":116352,"time":166.788774,"velocity":0.3937007874015748},{"duration":0.5504579999999919,"durationTicks":384,"midi":66,"name":"F#4","ticks":116544,"time":167.064003,"velocity":0.3937007874015748},{"duration":1.6513740000000041,"durationTicks":1152,"midi":80,"name":"G#5","ticks":116928,"time":167.614461,"velocity":0.3937007874015748},{"duration":0.27522899999999595,"durationTicks":192,"midi":64,"name":"E4","ticks":116928,"time":167.614461,"velocity":0.3937007874015748},{"duration":0.27522899999999595,"durationTicks":192,"midi":66,"name":"F#4","ticks":117120,"time":167.88969,"velocity":0.3937007874015748},{"duration":0.5504579999999919,"durationTicks":384,"midi":66,"name":"F#4","ticks":117312,"time":168.164919,"velocity":0.3937007874015748},{"duration":0.27522900000002437,"durationTicks":192,"midi":66,"name":"F#4","ticks":117696,"time":168.715377,"velocity":0.3937007874015748},{"duration":0.27522899999999595,"durationTicks":192,"midi":66,"name":"F#4","ticks":117888,"time":168.990606,"velocity":0.3937007874015748},{"duration":0.5504579999999919,"durationTicks":384,"midi":66,"name":"F#4","ticks":118080,"time":169.265835,"velocity":0.3937007874015748},{"duration":0.27522899999999595,"durationTicks":192,"midi":73,"name":"C#5","ticks":118272,"time":169.541064,"velocity":0.3937007874015748},{"duration":0.27522899999999595,"durationTicks":192,"midi":76,"name":"E5","ticks":118464,"time":169.816293,"velocity":0.3937007874015748},{"duration":0.5504579999999919,"durationTicks":384,"midi":68,"name":"G#4","ticks":118464,"time":169.816293,"velocity":0.3937007874015748},{"duration":0.27522899999999595,"durationTicks":192,"midi":73,"name":"C#5","ticks":118656,"time":170.091522,"velocity":0.3937007874015748},{"duration":0.8256870000000163,"durationTicks":576,"midi":81,"name":"A5","ticks":118848,"time":170.366751,"velocity":0.3937007874015748},{"duration":2.201831999999996,"durationTicks":1536,"midi":64,"name":"E4","ticks":118848,"time":170.366751,"velocity":0.3937007874015748},{"duration":0.27522899999999595,"durationTicks":192,"midi":61,"name":"C#4","ticks":119232,"time":170.917209,"velocity":0.3937007874015748},{"duration":0.8256869999999878,"durationTicks":576,"midi":80,"name":"G#5","ticks":119424,"time":171.192438,"velocity":0.3937007874015748},{"duration":0.27522899999999595,"durationTicks":192,"midi":61,"name":"C#4","ticks":119424,"time":171.192438,"velocity":0.3937007874015748},{"duration":0.27522899999999595,"durationTicks":192,"midi":61,"name":"C#4","ticks":119616,"time":171.467667,"velocity":0.3937007874015748},{"duration":0.27522899999999595,"durationTicks":192,"midi":61,"name":"C#4","ticks":119808,"time":171.742896,"velocity":0.3937007874015748},{"duration":0.27522899999999595,"durationTicks":192,"midi":62,"name":"D4","ticks":120000,"time":172.018125,"velocity":0.3937007874015748},{"duration":1.6513740000000041,"durationTicks":1152,"midi":76,"name":"E5","ticks":120000,"time":172.018125,"velocity":0.3937007874015748},{"duration":0.5504580000000203,"durationTicks":384,"midi":61,"name":"C#4","ticks":120192,"time":172.293354,"velocity":0.3937007874015748},{"duration":0.27522899999999595,"durationTicks":192,"midi":61,"name":"C#4","ticks":120576,"time":172.843812,"velocity":0.3937007874015748},{"duration":0.27522899999999595,"durationTicks":192,"midi":59,"name":"B3","ticks":120768,"time":173.119041,"velocity":0.3937007874015748},{"duration":1.1009159999999838,"durationTicks":768,"midi":57,"name":"A3","ticks":120960,"time":173.39427,"velocity":0.3937007874015748},{"duration":0.27522899999999595,"durationTicks":192,"midi":73,"name":"C#5","ticks":121344,"time":173.944728,"velocity":0.3937007874015748},{"duration":0.27522899999999595,"durationTicks":192,"midi":76,"name":"E5","ticks":121536,"time":174.219957,"velocity":0.3937007874015748},{"duration":0.27522900000002437,"durationTicks":192,"midi":73,"name":"C#5","ticks":121728,"time":174.495186,"velocity":0.3937007874015748},{"duration":0.8256869999999878,"durationTicks":576,"midi":78,"name":"F#5","ticks":121920,"time":174.770415,"velocity":0.3937007874015748},{"duration":0.8256869999999878,"durationTicks":576,"midi":81,"name":"A5","ticks":122496,"time":175.596102,"velocity":0.3937007874015748},{"duration":1.6513740000000041,"durationTicks":1152,"midi":80,"name":"G#5","ticks":123072,"time":176.421789,"velocity":0.3937007874015748},{"duration":0.27522900000002437,"durationTicks":192,"midi":73,"name":"C#5","ticks":124416,"time":178.348392,"velocity":0.3937007874015748},{"duration":0.27522899999999595,"durationTicks":192,"midi":76,"name":"E5","ticks":124608,"time":178.623621,"velocity":0.3937007874015748},{"duration":0.27522899999999595,"durationTicks":192,"midi":73,"name":"C#5","ticks":124800,"time":178.89885,"velocity":0.3937007874015748},{"duration":0.8256869999999878,"durationTicks":576,"midi":81,"name":"A5","ticks":124992,"time":179.174079,"velocity":0.3937007874015748},{"duration":0.8256870000000163,"durationTicks":576,"midi":80,"name":"G#5","ticks":125568,"time":179.999766,"velocity":0.3937007874015748},{"duration":1.6513740000000041,"durationTicks":1152,"midi":76,"name":"E5","ticks":126144,"time":180.825453,"velocity":0.3937007874015748}]}]}