{"header":{"keySignatures":[],"meta":[],"name":"","ppq":384,"tempos":[{"bpm":110.00011000011,"ticks":0}],"timeSignatures":[{"ticks":0,"timeSignature":[4,4],"measures":0}]},"tracks":[{"channel":0,"controlChanges":{},"pitchBends":[],"instrument":{"family":"piano","name":"acoustic grand piano","number":0},"name":"Electric Piano","notes":[{"duration":0.13636350000000008,"durationTicks":96,"midi":76,"name":"E5","ticks":768,"time":1.090908,"velocity":0.3937007874015748},{"duration":0.27272699999999994,"durationTicks":192,"midi":76,"name":"E5","ticks":864,"time":1.2272715,"velocity":0.3937007874015748},{"duration":0.13636350000000008,"durationTicks":96,"midi":76,"name":"E5","ticks":1056,"time":1.4999985,"velocity":0.3937007874015748},{"duration":0.13636350000000008,"durationTicks":96,"midi":72,"name":"C5","ticks":1248,"time":1.7727255,"velocity":0.3937007874015748},{"duration":0.13636350000000008,"durationTicks":96,"midi":76,"name":"E5","ticks":1344,"time":1.909089,"velocity":0.3937007874015748},{"duration":0.27272700000000016,"durationTicks":192,"midi":79,"name":"G5","ticks":1536,"time":2.181816,"velocity":0.3937007874015748},{"duration":0.27272700000000016,"durationTicks":192,"midi":67,"name":"G4","ticks":1920,"time":2.72727,"velocity":0.3937007874015748},{"duration":0.2727269999999997,"durationTicks":192,"midi":72,"name":"C5","ticks":2304,"time":3.272724,"velocity":0.3937007874015748},{"duration":0.27272700000000016,"durationTicks":192,"midi":67,"name":"G4","ticks":2592,"time":3.6818144999999998,"velocity":0.3937007874015748},{"duration":0.2727269999999997,"durationTicks":192,"midi":64,"name":"E4","ticks":2880,"time":4.090905,"velocity":0.3937007874015748},{"duration":0.2727269999999997,"durationTicks":192,"midi":69,"name":"A4","ticks":3168,"time":4.4999955,"velocity":0.3937007874015748},{"duration":0.2727270000000006,"durationTicks":192,"midi":71,"name":"B4","ticks":3360,"time":4.7727224999999995,"velocity":0.3937007874015748},{"duration":0.13636349999999986,"durationTicks":96,"midi":70,"name":"A#4","ticks":3552,"time":5.0454495,"velocity":0.3937007874015748},{"duration":0.13636349999999986,"durationTicks":96,"midi":69,"name":"A4","ticks":3648,"time":5.181813,"velocity":0.3937007874015748},{"duration":0.13636349999999986,"durationTicks":96,"midi":67,"name":"G4","ticks":3840,"time":5.45454,"velocity":0.3937007874015748},{"duration":0.13636349999999986,"durationTicks":96,"midi":76,"name":"E5","ticks":3968,"time":5.636358,"velocity":0.3937007874015748},{"duration":0.13636349999999986,"durationTicks":96,"midi":79,"name":"G5","ticks":4097,"time":5.819596453125,"velocity":0.3937007874015748},{"duration":0.2727270000000006,"durationTicks":192,"midi":81,"name":"A5","ticks":4225,"time":6.001414453124999,"velocity":0.3937007874015748},{"duration":0.13636349999999986,"durationTicks":96,"midi":77,"name":"F5","ticks":4417,"time":6.274141453125,"velocity":0.3937007874015748},{"duration":0.13636349999999986,"durationTicks":96,"midi":79,"name":"G5","ticks":4513,"time":6.410504953125,"velocity":0.3937007874015748},{"duration":0.2727269999999997,"durationTicks":192,"midi":76,"name":"E5","ticks":4705,"time":6.6832319531249995,"velocity":0.3937007874015748},{"duration":0.13636350000000075,"durationTicks":96,"midi":72,"name":"C5","ticks":4897,"time":6.955958953124999,"velocity":0.3937007874015748},{"duration":0.13636349999999986,"durationTicks":96,"midi":74,"name":"D5","ticks":4993,"time":7.092322453125,"velocity":0.3937007874015748},{"duration":0.13636349999999986,"durationTicks":96,"midi":71,"name":"B4","ticks":5089,"time":7.228685953125,"velocity":0.3937007874015748},{"duration":0.2727270000000006,"durationTicks":192,"midi":72,"name":"C5","ticks":5377,"time":7.637776453124999,"velocity":0.3937007874015748},{"duration":0.2727269999999997,"durationTicks":192,"midi":67,"name":"G4","ticks":5665,"time":8.046866953124999,"velocity":0.3937007874015748},{"duration":0.2727269999999997,"durationTicks":192,"midi":64,"name":"E4","ticks":5953,"time":8.455957453125,"velocity":0.3937007874015748},{"duration":0.2727270000000015,"durationTicks":192,"midi":69,"name":"A4","ticks":6241,"time":8.865047953125,"velocity":0.3937007874015748},{"duration":0.2727269999999997,"durationTicks":192,"midi":71,"name":"B4","ticks":6433,"time":9.137774953125001,"velocity":0.3937007874015748},{"duration":0.13636349999999986,"durationTicks":96,"midi":70,"name":"A#4","ticks":6625,"time":9.410501953125001,"velocity":0.3937007874015748},{"duration":0.13636349999999986,"durationTicks":96,"midi":69,"name":"A4","ticks":6721,"time":9.546865453125001,"velocity":0.3937007874015748},{"duration":0.13636349999999986,"durationTicks":96,"midi":67,"name":"G4","ticks":6913,"time":9.819592453125,"velocity":0.3937007874015748},{"duration":0.13636349999999986,"durationTicks":96,"midi":76,"name":"E5","ticks":7041,"time":10.001410453125,"velocity":0.3937007874015748},{"duration":0.13636349999999986,"durationTicks":96,"midi":79,"name":"G5","ticks":7170,"time":10.18464890625,"velocity":0.3937007874015748},{"duration":0.2727270000000015,"durationTicks":192,"midi":81,"name":"A5","ticks":7298,"time":10.366466906249999,"velocity":0.3937007874015748},{"duration":0.13636349999999986,"durationTicks":96,"midi":77,"name":"F5","ticks":7490,"time":10.63919390625,"velocity":0.3937007874015748},{"duration":0.13636349999999986,"durationTicks":96,"midi":79,"name":"G5","ticks":7586,"time":10.77555740625,"velocity":0.3937007874015748},{"duration":0.2727269999999997,"durationTicks":192,"midi":76,"name":"E5","ticks":7778,"time":11.04828440625,"velocity":0.3937007874015748},{"duration":0.13636349999999986,"durationTicks":96,"midi":72,"name":"C5","ticks":7970,"time":11.32101140625,"velocity":0.3937007874015748},{"duration":0.13636349999999986,"durationTicks":96,"midi":74,"name":"D5","ticks":8066,"time":11.45737490625,"velocity":0.3937007874015748},{"duration":0.13636349999999986,"durationTicks":96,"midi":71,"name":"B4","ticks":8162,"time":11.593738406249999,"velocity":0.3937007874015748},{"duration":0.13636349999999986,"durationTicks":96,"midi":60,"name":"C4","ticks":8450,"time":12.002828906249999,"velocity":0.3937007874015748},{"duration":0.13636350000000164,"durationTicks":96,"midi":79,"name":"G5","ticks":8642,"time":12.275555906249998,"velocity":0.3937007874015748},{"duration":0.13636349999999986,"durationTicks":96,"midi":78,"name":"F#5","ticks":8738,"time":12.41191940625,"velocity":0.3937007874015748},{"duration":0.13636349999999986,"durationTicks":96,"midi":77,"name":"F5","ticks":8834,"time":12.54828290625,"velocity":0.3937007874015748},{"duration":0.13636349999999986,"durationTicks":96,"midi":75,"name":"D#5","ticks":8930,"time":12.68464640625,"velocity":0.3937007874015748},{"duration":0.13636349999999986,"durationTicks":96,"midi":76,"name":"E5","ticks":9122,"time":12.95737340625,"velocity":0.3937007874015748},{"duration":0.13636349999999986,"durationTicks":96,"midi":72,"name":"C5","ticks":9122,"time":12.95737340625,"velocity":0.3937007874015748},{"duration":0.13636349999999986,"durationTicks":96,"midi":68,"name":"G#4","ticks":9314,"time":13.23010040625,"velocity":0.3937007874015748},{"duration":0.13636349999999986,"durationTicks":96,"midi":69,"name":"A4","ticks":9410,"time":13.366463906249999,"velocity":0.3937007874015748},{"duration":0.13636349999999986,"durationTicks":96,"midi":72,"name":"C5","ticks":9506,"time":13.502827406249999,"velocity":0.3937007874015748},{"duration":0.13636349999999986,"durationTicks":96,"midi":69,"name":"A4","ticks":9698,"time":13.775554406249999,"velocity":0.3937007874015748},{"duration":0.13636349999999986,"durationTicks":96,"midi":72,"name":"C5","ticks":9794,"time":13.911917906249998,"velocity":0.3937007874015748},{"duration":0.13636350000000164,"durationTicks":96,"midi":74,"name":"D5","ticks":9890,"time":14.048281406249998,"velocity":0.3937007874015748},{"duration":0.13636349999999986,"durationTicks":96,"midi":60,"name":"C4","ticks":9986,"time":14.18464490625,"velocity":0.3937007874015748},{"duration":0.13636349999999986,"durationTicks":96,"midi":79,"name":"G5","ticks":10178,"time":14.45737190625,"velocity":0.3937007874015748},{"duration":0.13636349999999986,"durationTicks":96,"midi":78,"name":"F#5","ticks":10274,"time":14.59373540625,"velocity":0.3937007874015748},{"duration":0.13636349999999986,"durationTicks":96,"midi":77,"name":"F5","ticks":10370,"time":14.73009890625,"velocity":0.3937007874015748},{"duration":0.13636349999999986,"durationTicks":96,"midi":75,"name":"D#5","ticks":10466,"time":14.86646240625,"velocity":0.3937007874015748},{"duration":0.13636349999999986,"durationTicks":96,"midi":76,"name":"E5","ticks":10658,"time":15.139189406249999,"velocity":0.3937007874015748},{"duration":0.13636349999999986,"durationTicks":96,"midi":76,"name":"E5","ticks":10850,"time":15.411916406249999,"velocity":0.3937007874015748},{"duration":0.13636350000000164,"durationTicks":96,"midi":76,"name":"E5","ticks":11042,"time":15.684643406249998,"velocity":0.3937007874015748},{"duration":0.13636349999999986,"durationTicks":96,"midi":76,"name":"E5","ticks":11138,"time":15.82100690625,"velocity":0.3937007874015748},{"duration":0.13636350000000164,"durationTicks":96,"midi":67,"name":"G4","ticks":11330,"time":16.093733906249998,"velocity":0.3937007874015748},{"duration":0.13636350000000164,"durationTicks":96,"midi":60,"name":"C4","ticks":11522,"time":16.366460906249998,"velocity":0.3937007874015748},{"duration":0.13636350000000164,"durationTicks":96,"midi":79,"name":"G5","ticks":11714,"time":16.639187906249997,"velocity":0.3937007874015748},{"duration":0.13636350000000164,"durationTicks":96,"midi":78,"name":"F#5","ticks":11810,"time":16.77555140625,"velocity":0.3937007874015748},{"duration":0.13636349999999808,"durationTicks":96,"midi":77,"name":"F5","ticks":11906,"time":16.91191490625,"velocity":0.3937007874015748},{"duration":0.13636350000000164,"durationTicks":96,"midi":75,"name":"D#5","ticks":12002,"time":17.04827840625,"velocity":0.3937007874015748},{"duration":0.13636350000000164,"durationTicks":96,"midi":76,"name":"E5","ticks":12194,"time":17.32100540625,"velocity":0.3937007874015748},{"duration":0.13636350000000164,"durationTicks":96,"midi":72,"name":"C5","ticks":12194,"time":17.32100540625,"velocity":0.3937007874015748},{"duration":0.13636349999999808,"durationTicks":96,"midi":68,"name":"G#4","ticks":12386,"time":17.593732406250002,"velocity":0.3937007874015748},{"duration":0.13636350000000164,"durationTicks":96,"midi":69,"name":"A4","ticks":12482,"time":17.73009590625,"velocity":0.3937007874015748},{"duration":0.13636349999999808,"durationTicks":96,"midi":72,"name":"C5","ticks":12578,"time":17.86645940625,"velocity":0.3937007874015748},{"duration":0.13636350000000164,"durationTicks":96,"midi":69,"name":"A4","ticks":12770,"time":18.13918640625,"velocity":0.3937007874015748},{"duration":0.13636349999999808,"durationTicks":96,"midi":72,"name":"C5","ticks":12866,"time":18.275549906250003,"velocity":0.3937007874015748},{"duration":0.13636350000000164,"durationTicks":96,"midi":74,"name":"D5","ticks":12962,"time":18.41191340625,"velocity":0.3937007874015748},{"duration":0.13636349999999808,"durationTicks":96,"midi":75,"name":"D#5","ticks":13250,"time":18.821003906250002,"velocity":0.3937007874015748},{"duration":0.13636350000000164,"durationTicks":96,"midi":74,"name":"D5","ticks":13538,"time":19.23009440625,"velocity":0.3937007874015748},{"duration":0.13636349999999808,"durationTicks":96,"midi":72,"name":"C5","ticks":13826,"time":19.63918490625,"velocity":0.3937007874015748},{"duration":0.13636349999999808,"durationTicks":96,"midi":67,"name":"G4","ticks":14114,"time":20.048275406250003,"velocity":0.3937007874015748},{"duration":0.13636350000000164,"durationTicks":96,"midi":67,"name":"G4","ticks":14210,"time":20.18463890625,"velocity":0.3937007874015748},{"duration":0.13636350000000164,"durationTicks":96,"midi":60,"name":"C4","ticks":14402,"time":20.45736590625,"velocity":0.3937007874015748},{"duration":0.13636350000000164,"durationTicks":96,"midi":60,"name":"C4","ticks":14594,"time":20.73009290625,"velocity":0.3937007874015748},{"duration":0.13636350000000164,"durationTicks":96,"midi":79,"name":"G5","ticks":14786,"time":21.00281990625,"velocity":0.3937007874015748},{"duration":0.13636349999999808,"durationTicks":96,"midi":78,"name":"F#5","ticks":14882,"time":21.13918340625,"velocity":0.3937007874015748},{"duration":0.13636350000000164,"durationTicks":96,"midi":77,"name":"F5","ticks":14978,"time":21.27554690625,"velocity":0.3937007874015748},{"duration":0.13636349999999808,"durationTicks":96,"midi":75,"name":"D#5","ticks":15074,"time":21.41191040625,"velocity":0.3937007874015748},{"duration":0.13636350000000164,"durationTicks":96,"midi":76,"name":"E5","ticks":15266,"time":21.68463740625,"velocity":0.3937007874015748},{"duration":0.13636350000000164,"durationTicks":96,"midi":68,"name":"G#4","ticks":15458,"time":21.95736440625,"velocity":0.3937007874015748},{"duration":0.13636349999999808,"durationTicks":96,"midi":69,"name":"A4","ticks":15554,"time":22.093727906250002,"velocity":0.3937007874015748},{"duration":0.13636350000000164,"durationTicks":96,"midi":72,"name":"C5","ticks":15650,"time":22.23009140625,"velocity":0.3937007874015748},{"duration":0.13636350000000164,"durationTicks":96,"midi":69,"name":"A4","ticks":15842,"time":22.50281840625,"velocity":0.3937007874015748},{"duration":0.13636349999999808,"durationTicks":96,"midi":72,"name":"C5","ticks":15938,"time":22.639181906250002,"velocity":0.3937007874015748},{"duration":0.13636350000000164,"durationTicks":96,"midi":74,"name":"D5","ticks":16034,"time":22.77554540625,"velocity":0.3937007874015748},{"duration":0.13636349999999808,"durationTicks":96,"midi":60,"name":"C4","ticks":16130,"time":22.91190890625,"velocity":0.3937007874015748},{"duration":0.13636349999999808,"durationTicks":96,"midi":79,"name":"G5","ticks":16322,"time":23.18463590625,"velocity":0.3937007874015748},{"duration":0.13636350000000164,"durationTicks":96,"midi":78,"name":"F#5","ticks":16418,"time":23.32099940625,"velocity":0.3937007874015748},{"duration":0.13636350000000164,"durationTicks":96,"midi":77,"name":"F5","ticks":16514,"time":23.45736290625,"velocity":0.3937007874015748},{"duration":0.13636349999999808,"durationTicks":96,"midi":75,"name":"D#5","ticks":16610,"time":23.593726406250003,"velocity":0.3937007874015748},{"duration":0.13636349999999808,"durationTicks":96,"midi":76,"name":"E5","ticks":16802,"time":23.866453406250002,"velocity":0.3937007874015748},{"duration":0.13636349999999808,"durationTicks":96,"midi":84,"name":"C6","ticks":16994,"time":24.139180406250002,"velocity":0.3937007874015748},{"duration":0.13636349999999808,"durationTicks":96,"midi":84,"name":"C6","ticks":17186,"time":24.411907406250002,"velocity":0.3937007874015748},{"duration":0.13636350000000164,"durationTicks":96,"midi":84,"name":"C6","ticks":17282,"time":24.54827090625,"velocity":0.3937007874015748},{"duration":0.13636350000000164,"durationTicks":96,"midi":67,"name":"G4","ticks":17474,"time":24.82099790625,"velocity":0.3937007874015748},{"duration":0.13636350000000164,"durationTicks":96,"midi":60,"name":"C4","ticks":17666,"time":25.09372490625,"velocity":0.3937007874015748},{"duration":0.13636349999999808,"durationTicks":96,"midi":79,"name":"G5","ticks":17858,"time":25.366451906250003,"velocity":0.3937007874015748},{"duration":0.13636350000000164,"durationTicks":96,"midi":78,"name":"F#5","ticks":17954,"time":25.50281540625,"velocity":0.3937007874015748},{"duration":0.13636349999999808,"durationTicks":96,"midi":77,"name":"F5","ticks":18050,"time":25.639178906250002,"velocity":0.3937007874015748},{"duration":0.13636350000000164,"durationTicks":96,"midi":75,"name":"D#5","ticks":18146,"time":25.77554240625,"velocity":0.3937007874015748},{"duration":0.13636350000000164,"durationTicks":96,"midi":76,"name":"E5","ticks":18338,"time":26.04826940625,"velocity":0.3937007874015748},{"duration":0.13636350000000164,"durationTicks":96,"midi":68,"name":"G#4","ticks":18530,"time":26.32099640625,"velocity":0.3937007874015748},{"duration":0.13636349999999808,"durationTicks":96,"midi":69,"name":"A4","ticks":18626,"time":26.45735990625,"velocity":0.3937007874015748},{"duration":0.13636350000000164,"durationTicks":96,"midi":72,"name":"C5","ticks":18722,"time":26.59372340625,"velocity":0.3937007874015748},{"duration":0.13636350000000164,"durationTicks":96,"midi":69,"name":"A4","ticks":18914,"time":26.86645040625,"velocity":0.3937007874015748},{"duration":0.13636350000000164,"durationTicks":96,"midi":72,"name":"C5","ticks":19010,"time":27.00281390625,"velocity":0.3937007874015748},{"duration":0.13636349999999808,"durationTicks":96,"midi":74,"name":"D5","ticks":19106,"time":27.139177406250003,"velocity":0.3937007874015748},{"duration":0.13636350000000164,"durationTicks":96,"midi":75,"name":"D#5","ticks":19394,"time":27.54826790625,"velocity":0.3937007874015748},{"duration":0.13636349999999808,"durationTicks":96,"midi":74,"name":"D5","ticks":19682,"time":27.957358406250002,"velocity":0.3937007874015748},{"duration":0.13636350000000164,"durationTicks":96,"midi":72,"name":"C5","ticks":19970,"time":28.36644890625,"velocity":0.3937007874015748},{"duration":0.13636350000000164,"durationTicks":96,"midi":67,"name":"G4","ticks":20258,"time":28.77553940625,"velocity":0.3937007874015748},{"duration":0.13636349999999808,"durationTicks":96,"midi":67,"name":"G4","ticks":20354,"time":28.911902906250003,"velocity":0.3937007874015748},{"duration":0.13636349999999808,"durationTicks":96,"midi":60,"name":"C4","ticks":20546,"time":29.184629906250002,"velocity":0.3937007874015748},{"duration":0.13636349999999808,"durationTicks":96,"midi":72,"name":"C5","ticks":20738,"time":29.457356906250002,"velocity":0.3937007874015748},{"duration":0.13636350000000164,"durationTicks":96,"midi":72,"name":"C5","ticks":20834,"time":29.59372040625,"velocity":0.3937007874015748},{"duration":0.13636350000000164,"durationTicks":96,"midi":72,"name":"C5","ticks":21026,"time":29.86644740625,"velocity":0.3937007874015748},{"duration":0.13636350000000164,"durationTicks":96,"midi":72,"name":"C5","ticks":21218,"time":30.13917440625,"velocity":0.3937007874015748},{"duration":0.13636349999999808,"durationTicks":96,"midi":74,"name":"D5","ticks":21314,"time":30.27553790625,"velocity":0.3937007874015748},{"duration":0.13636350000000164,"durationTicks":96,"midi":76,"name":"E5","ticks":21506,"time":30.54826490625,"velocity":0.3937007874015748},{"duration":0.13636349999999808,"durationTicks":96,"midi":72,"name":"C5","ticks":21602,"time":30.684628406250003,"velocity":0.3937007874015748},{"duration":0.13636349999999808,"durationTicks":96,"midi":69,"name":"A4","ticks":21794,"time":30.957355406250002,"velocity":0.3937007874015748},{"duration":0.13636350000000164,"durationTicks":96,"midi":67,"name":"G4","ticks":21890,"time":31.09371890625,"velocity":0.3937007874015748},{"duration":0.13636350000000164,"durationTicks":96,"midi":60,"name":"C4","ticks":22082,"time":31.36644590625,"velocity":0.3937007874015748},{"duration":0.13636350000000164,"durationTicks":96,"midi":72,"name":"C5","ticks":22274,"time":31.63917290625,"velocity":0.3937007874015748},{"duration":0.13636349999999808,"durationTicks":96,"midi":72,"name":"C5","ticks":22370,"time":31.77553640625,"velocity":0.3937007874015748},{"duration":0.13636350000000164,"durationTicks":96,"midi":72,"name":"C5","ticks":22562,"time":32.04826340625,"velocity":0.3937007874015748},{"duration":0.13636349999999453,"durationTicks":96,"midi":72,"name":"C5","ticks":22754,"time":32.320990406250004,"velocity":0.3937007874015748},{"duration":0.13636350000000164,"durationTicks":96,"midi":74,"name":"D5","ticks":22850,"time":32.45735390625,"velocity":0.3937007874015748},{"duration":0.13636350000000164,"durationTicks":96,"midi":76,"name":"E5","ticks":22946,"time":32.59371740625,"velocity":0.3937007874015748},{"duration":0.13636350000000164,"durationTicks":96,"midi":67,"name":"G4","ticks":23042,"time":32.73008090625,"velocity":0.3937007874015748},{"duration":0.13636350000000164,"durationTicks":96,"midi":60,"name":"C4","ticks":23330,"time":33.13917140625,"velocity":0.3937007874015748},{"duration":0.13636350000000164,"durationTicks":96,"midi":60,"name":"C4","ticks":23618,"time":33.54826190625,"velocity":0.3937007874015748},{"duration":0.13636350000000164,"durationTicks":96,"midi":72,"name":"C5","ticks":23810,"time":33.82098890625,"velocity":0.3937007874015748},{"duration":0.13636350000000164,"durationTicks":96,"midi":72,"name":"C5","ticks":23906,"time":33.95735240625,"velocity":0.3937007874015748},{"duration":0.13636350000000164,"durationTicks":96,"midi":72,"name":"C5","ticks":24098,"time":34.23007940625,"velocity":0.3937007874015748},{"duration":0.13636350000000164,"durationTicks":96,"midi":72,"name":"C5","ticks":24290,"time":34.50280640625,"velocity":0.3937007874015748},{"duration":0.13636349999999453,"durationTicks":96,"midi":74,"name":"D5","ticks":24386,"time":34.639169906250004,"velocity":0.3937007874015748},{"duration":0.13636349999999453,"durationTicks":96,"midi":76,"name":"E5","ticks":24578,"time":34.91189690625,"velocity":0.3937007874015748},{"duration":0.13636350000000164,"durationTicks":96,"midi":72,"name":"C5","ticks":24674,"time":35.048260406249995,"velocity":0.3937007874015748},{"duration":0.13636350000000164,"durationTicks":96,"midi":69,"name":"A4","ticks":24866,"time":35.32098740625,"velocity":0.3937007874015748},{"duration":0.13636349999999453,"durationTicks":96,"midi":67,"name":"G4","ticks":24962,"time":35.45735090625,"velocity":0.3937007874015748},{"duration":0.13636350000000164,"durationTicks":96,"midi":60,"name":"C4","ticks":25154,"time":35.730077906249996,"velocity":0.3937007874015748},{"duration":0.13636350000000164,"durationTicks":96,"midi":76,"name":"E5","ticks":25346,"time":36.00280490625,"velocity":0.3937007874015748},{"duration":0.13636349999999453,"durationTicks":96,"midi":76,"name":"E5","ticks":25442,"time":36.13916840625,"velocity":0.3937007874015748},{"duration":0.13636350000000164,"durationTicks":96,"midi":76,"name":"E5","ticks":25634,"time":36.41189540625,"velocity":0.3937007874015748},{"duration":0.13636350000000164,"durationTicks":96,"midi":76,"name":"E5","ticks":25922,"time":36.820985906249994,"velocity":0.3937007874015748},{"duration":0.27272699999999617,"durationTicks":192,"midi":79,"name":"G5","ticks":26114,"time":37.09371290625,"velocity":0.3937007874015748},{"duration":0.2727270000000033,"durationTicks":192,"midi":67,"name":"G4","ticks":26498,"time":37.63916690625,"velocity":0.3937007874015748},{"duration":0.2727270000000033,"durationTicks":192,"midi":72,"name":"C5","ticks":26882,"time":38.18462090625,"velocity":0.3937007874015748},{"duration":0.2727270000000033,"durationTicks":192,"midi":67,"name":"G4","ticks":27170,"time":38.593711406249994,"velocity":0.3937007874015748},{"duration":0.27272699999999617,"durationTicks":192,"midi":64,"name":"E4","ticks":27458,"time":39.00280190625,"velocity":0.3937007874015748},{"duration":0.2727270000000033,"durationTicks":192,"midi":69,"name":"A4","ticks":27746,"time":39.41189240625,"velocity":0.3937007874015748},{"duration":0.27272699999999617,"durationTicks":192,"midi":71,"name":"B4","ticks":27938,"time":39.68461940625,"velocity":0.3937007874015748},{"duration":0.13636350000000164,"durationTicks":96,"midi":70,"name":"A#4","ticks":28130,"time":39.95734640625,"velocity":0.3937007874015748},{"duration":0.13636350000000164,"durationTicks":96,"midi":69,"name":"A4","ticks":28226,"time":40.09370990625,"velocity":0.3937007874015748},{"duration":0.13636350000000164,"durationTicks":96,"midi":67,"name":"G4","ticks":28418,"time":40.366436906249994,"velocity":0.3937007874015748},{"duration":0.13636350000000164,"durationTicks":96,"midi":76,"name":"E5","ticks":28546,"time":40.54825490625,"velocity":0.3937007874015748},{"duration":0.13636350000000164,"durationTicks":96,"midi":79,"name":"G5","ticks":28675,"time":40.731493359375,"velocity":0.3937007874015748},{"duration":0.27272699999999617,"durationTicks":192,"midi":81,"name":"A5","ticks":28803,"time":40.913311359375,"velocity":0.3937007874015748},{"duration":0.13636350000000164,"durationTicks":96,"midi":77,"name":"F5","ticks":28995,"time":41.186038359375,"velocity":0.3937007874015748},{"duration":0.13636350000000164,"durationTicks":96,"midi":79,"name":"G5","ticks":29091,"time":41.322401859375,"velocity":0.3937007874015748},{"duration":0.27272699999999617,"durationTicks":192,"midi":76,"name":"E5","ticks":29283,"time":41.595128859375,"velocity":0.3937007874015748},{"duration":0.13636350000000164,"durationTicks":96,"midi":72,"name":"C5","ticks":29475,"time":41.867855859375,"velocity":0.3937007874015748},{"duration":0.13636350000000164,"durationTicks":96,"midi":74,"name":"D5","ticks":29571,"time":42.004219359375,"velocity":0.3937007874015748},{"duration":0.13636349999999453,"durationTicks":96,"midi":71,"name":"B4","ticks":29667,"time":42.140582859375,"velocity":0.3937007874015748},{"duration":0.2727270000000033,"durationTicks":192,"midi":72,"name":"C5","ticks":29955,"time":42.549673359375,"velocity":0.3937007874015748},{"duration":0.2727270000000033,"durationTicks":192,"midi":67,"name":"G4","ticks":30243,"time":42.958763859375,"velocity":0.3937007874015748},{"duration":0.27272699999999617,"durationTicks":192,"midi":64,"name":"E4","ticks":30531,"time":43.367854359375,"velocity":0.3937007874015748},{"duration":0.27272699999999617,"durationTicks":192,"midi":69,"name":"A4","ticks":30819,"time":43.776944859375,"velocity":0.3937007874015748},{"duration":0.2727270000000033,"durationTicks":192,"midi":71,"name":"B4","ticks":31011,"time":44.049671859374996,"velocity":0.3937007874015748},{"duration":0.13636350000000164,"durationTicks":96,"midi":70,"name":"A#4","ticks":31203,"time":44.322398859375,"velocity":0.3937007874015748},{"duration":0.13636350000000164,"durationTicks":96,"midi":69,"name":"A4","ticks":31299,"time":44.458762359375,"velocity":0.3937007874015748},{"duration":0.13636350000000164,"durationTicks":96,"midi":67,"name":"G4","ticks":31491,"time":44.731489359375,"velocity":0.3937007874015748},{"duration":0.13636350000000164,"durationTicks":96,"midi":76,"name":"E5","ticks":31619,"time":44.913307359375,"velocity":0.3937007874015748},{"duration":0.13636350000000164,"durationTicks":96,"midi":79,"name":"G5","ticks":31748,"time":45.0965458125,"velocity":0.3937007874015748},{"duration":0.27272699999999617,"durationTicks":192,"midi":81,"name":"A5","ticks":31876,"time":45.278363812500004,"velocity":0.3937007874015748},{"duration":0.13636350000000164,"durationTicks":96,"midi":77,"name":"F5","ticks":32068,"time":45.5510908125,"velocity":0.3937007874015748},{"duration":0.13636350000000164,"durationTicks":96,"midi":79,"name":"G5","ticks":32164,"time":45.6874543125,"velocity":0.3937007874015748},{"duration":0.27272699999999617,"durationTicks":192,"midi":76,"name":"E5","ticks":32356,"time":45.960181312500005,"velocity":0.3937007874015748},{"duration":0.13636350000000164,"durationTicks":96,"midi":72,"name":"C5","ticks":32548,"time":46.2329083125,"velocity":0.3937007874015748},{"duration":0.13636350000000164,"durationTicks":96,"midi":74,"name":"D5","ticks":32644,"time":46.3692718125,"velocity":0.3937007874015748},{"duration":0.13636349999999453,"durationTicks":96,"midi":71,"name":"B4","ticks":32740,"time":46.505635312500004,"velocity":0.3937007874015748},{"duration":0.13636350000000164,"durationTicks":96,"midi":76,"name":"E5","ticks":33028,"time":46.9147258125,"velocity":0.3937007874015748},{"duration":0.13636350000000164,"durationTicks":96,"midi":72,"name":"C5","ticks":33124,"time":47.051089312500004,"velocity":0.3937007874015748},{"duration":0.2727270000000033,"durationTicks":192,"midi":67,"name":"G4","ticks":33316,"time":47.3238163125,"velocity":0.3937007874015748},{"duration":0.27272699999999617,"durationTicks":192,"midi":68,"name":"G#4","ticks":33604,"time":47.732906812500005,"velocity":0.3937007874015748},{"duration":0.13636350000000164,"durationTicks":96,"midi":69,"name":"A4","ticks":33796,"time":48.0056338125,"velocity":0.3937007874015748},{"duration":0.13636350000000164,"durationTicks":96,"midi":77,"name":"F5","ticks":33892,"time":48.1419973125,"velocity":0.3937007874015748},{"duration":0.13636350000000164,"durationTicks":96,"midi":77,"name":"F5","ticks":34084,"time":48.4147243125,"velocity":0.3937007874015748},{"duration":0.13636350000000164,"durationTicks":96,"midi":69,"name":"A4","ticks":34180,"time":48.5510878125,"velocity":0.3937007874015748},{"duration":0.13636350000000164,"durationTicks":96,"midi":60,"name":"C4","ticks":34372,"time":48.823814812500004,"velocity":0.3937007874015748},{"duration":0.13636350000000164,"durationTicks":96,"midi":67,"name":"G4","ticks":34564,"time":49.0965418125,"velocity":0.3937007874015748},{"duration":0.13636350000000164,"durationTicks":96,"midi":71,"name":"B4","ticks":34564,"time":49.0965418125,"velocity":0.3937007874015748},{"duration":0.13636350000000164,"durationTicks":96,"midi":81,"name":"A5","ticks":34692,"time":49.2783598125,"velocity":0.3937007874015748},{"duration":0.13636350000000164,"durationTicks":96,"midi":77,"name":"F5","ticks":34692,"time":49.2783598125,"velocity":0.3937007874015748},{"duration":0.13636350000000164,"durationTicks":96,"midi":81,"name":"A5","ticks":34821,"time":49.461598265625,"velocity":0.3937007874015748},{"duration":0.13636350000000164,"durationTicks":96,"midi":77,"name":"F5","ticks":34821,"time":49.461598265625,"velocity":0.3937007874015748},{"duration":0.13636349999999453,"durationTicks":96,"midi":77,"name":"F5","ticks":34949,"time":49.643416265625,"velocity":0.3937007874015748},{"duration":0.13636349999999453,"durationTicks":96,"midi":81,"name":"A5","ticks":34949,"time":49.643416265625,"velocity":0.3937007874015748},{"duration":0.13636350000000164,"durationTicks":96,"midi":79,"name":"G5","ticks":35077,"time":49.825234265625,"velocity":0.3937007874015748},{"duration":0.13636350000000164,"durationTicks":96,"midi":71,"name":"B4","ticks":35077,"time":49.825234265625,"velocity":0.3937007874015748},{"duration":0.13636350000000164,"durationTicks":96,"midi":77,"name":"F5","ticks":35206,"time":50.00847271875,"velocity":0.3937007874015748},{"duration":0.13636350000000164,"durationTicks":96,"midi":76,"name":"E5","ticks":35334,"time":50.19029071875,"velocity":0.3937007874015748},{"duration":0.13636350000000164,"durationTicks":96,"midi":72,"name":"C5","ticks":35430,"time":50.32665421875,"velocity":0.3937007874015748},{"duration":0.13636350000000164,"durationTicks":96,"midi":69,"name":"A4","ticks":35622,"time":50.59938121875,"velocity":0.3937007874015748},{"duration":0.13636350000000164,"durationTicks":96,"midi":67,"name":"G4","ticks":35718,"time":50.73574471875,"velocity":0.3937007874015748},{"duration":0.13636349999999453,"durationTicks":96,"midi":60,"name":"C4","ticks":35910,"time":51.00847171875,"velocity":0.3937007874015748},{"duration":0.13636350000000164,"durationTicks":96,"midi":76,"name":"E5","ticks":36102,"time":51.28119871875,"velocity":0.3937007874015748},{"duration":0.13636350000000164,"durationTicks":96,"midi":72,"name":"C5","ticks":36198,"time":51.41756221875,"velocity":0.3937007874015748},{"duration":0.27272699999999617,"durationTicks":192,"midi":67,"name":"G4","ticks":36390,"time":51.69028921875,"velocity":0.3937007874015748},{"duration":0.27272699999999617,"durationTicks":192,"midi":68,"name":"G#4","ticks":36678,"time":52.09937971875,"velocity":0.3937007874015748},{"duration":0.13636350000000164,"durationTicks":96,"midi":69,"name":"A4","ticks":36870,"time":52.37210671875,"velocity":0.3937007874015748},{"duration":0.13636350000000164,"durationTicks":96,"midi":77,"name":"F5","ticks":36966,"time":52.50847021875,"velocity":0.3937007874015748},{"duration":0.13636349999999453,"durationTicks":96,"midi":77,"name":"F5","ticks":37158,"time":52.78119721875,"velocity":0.3937007874015748},{"duration":0.13636350000000164,"durationTicks":96,"midi":69,"name":"A4","ticks":37254,"time":52.917560718749996,"velocity":0.3937007874015748},{"duration":0.13636350000000164,"durationTicks":96,"midi":60,"name":"C4","ticks":37446,"time":53.19028771875,"velocity":0.3937007874015748},{"duration":0.13636349999999453,"durationTicks":96,"midi":71,"name":"B4","ticks":37638,"time":53.46301471875,"velocity":0.3937007874015748},{"duration":0.13636349999999453,"durationTicks":96,"midi":67,"name":"G4","ticks":37638,"time":53.46301471875,"velocity":0.3937007874015748},{"duration":0.13636350000000164,"durationTicks":96,"midi":77,"name":"F5","ticks":37734,"time":53.59937821875,"velocity":0.3937007874015748},{"duration":0.13636350000000164,"durationTicks":96,"midi":69,"name":"A4","ticks":37734,"time":53.59937821875,"velocity":0.3937007874015748},{"duration":0.13636350000000164,"durationTicks":96,"midi":77,"name":"F5","ticks":37926,"time":53.87210521875,"velocity":0.3937007874015748},{"duration":0.13636350000000164,"durationTicks":96,"midi":69,"name":"A4","ticks":37926,"time":53.87210521875,"velocity":0.3937007874015748},{"duration":0.13636349999999453,"durationTicks":96,"midi":69,"name":"A4","ticks":38022,"time":54.00846871875,"velocity":0.3937007874015748},{"duration":0.13636349999999453,"durationTicks":96,"midi":77,"name":"F5","ticks":38022,"time":54.00846871875,"velocity":0.3937007874015748},{"duration":0.13636350000000164,"durationTicks":96,"midi":76,"name":"E5","ticks":38150,"time":54.190286718749995,"velocity":0.3937007874015748},{"duration":0.13636350000000164,"durationTicks":96,"midi":67,"name":"G4","ticks":38150,"time":54.190286718749995,"velocity":0.3937007874015748},{"duration":0.13636350000000164,"durationTicks":96,"midi":65,"name":"F4","ticks":38279,"time":54.373525171874995,"velocity":0.3937007874015748},{"duration":0.13636350000000164,"durationTicks":96,"midi":74,"name":"D5","ticks":38279,"time":54.373525171874995,"velocity":0.3937007874015748},{"duration":0.13636350000000164,"durationTicks":96,"midi":72,"name":"C5","ticks":38407,"time":54.555343171875,"velocity":0.3937007874015748},{"duration":0.13636350000000164,"durationTicks":96,"midi":64,"name":"E4","ticks":38407,"time":54.555343171875,"velocity":0.3937007874015748},{"duration":0.13636350000000164,"durationTicks":96,"midi":67,"name":"G4","ticks":38503,"time":54.691706671875004,"velocity":0.3937007874015748},{"duration":0.13636350000000164,"durationTicks":96,"midi":67,"name":"G4","ticks":38695,"time":54.964433671875,"velocity":0.3937007874015748},{"duration":0.2727270000000033,"durationTicks":192,"midi":60,"name":"C4","ticks":38791,"time":55.100797171875,"velocity":0.3937007874015748},{"duration":0.13636350000000164,"durationTicks":96,"midi":76,"name":"E5","ticks":39175,"time":55.646251171875,"velocity":0.3937007874015748},{"duration":0.13636350000000164,"durationTicks":96,"midi":72,"name":"C5","ticks":39271,"time":55.782614671875,"velocity":0.3937007874015748},{"duration":0.2727270000000033,"durationTicks":192,"midi":67,"name":"G4","ticks":39463,"time":56.055341671875,"velocity":0.3937007874015748},{"duration":0.27272699999999617,"durationTicks":192,"midi":68,"name":"G#4","ticks":39751,"time":56.464432171875,"velocity":0.3937007874015748},{"duration":0.13636350000000164,"durationTicks":96,"midi":69,"name":"A4","ticks":39943,"time":56.737159171875,"velocity":0.3937007874015748},{"duration":0.13636350000000164,"durationTicks":96,"midi":77,"name":"F5","ticks":40039,"time":56.873522671875,"velocity":0.3937007874015748},{"duration":0.13636349999999453,"durationTicks":96,"midi":77,"name":"F5","ticks":40231,"time":57.146249671875005,"velocity":0.3937007874015748},{"duration":0.13636350000000164,"durationTicks":96,"midi":69,"name":"A4","ticks":40327,"time":57.282613171875,"velocity":0.3937007874015748},{"duration":0.13636350000000164,"durationTicks":96,"midi":60,"name":"C4","ticks":40519,"time":57.555340171875,"velocity":0.3937007874015748},{"duration":0.13636350000000164,"durationTicks":96,"midi":71,"name":"B4","ticks":40711,"time":57.828067171875,"velocity":0.3937007874015748},{"duration":0.13636350000000164,"durationTicks":96,"midi":67,"name":"G4","ticks":40711,"time":57.828067171875,"velocity":0.3937007874015748},{"duration":0.13636350000000164,"durationTicks":96,"midi":81,"name":"A5","ticks":40839,"time":58.009885171875,"velocity":0.3937007874015748},{"duration":0.13636350000000164,"durationTicks":96,"midi":77,"name":"F5","ticks":40839,"time":58.009885171875,"velocity":0.3937007874015748},{"duration":0.13636350000000164,"durationTicks":96,"midi":77,"name":"F5","ticks":40968,"time":58.193123625,"velocity":0.3937007874015748},{"duration":0.13636350000000164,"durationTicks":96,"midi":81,"name":"A5","ticks":40968,"time":58.193123625,"velocity":0.3937007874015748},{"duration":0.13636350000000164,"durationTicks":96,"midi":81,"name":"A5","ticks":41096,"time":58.374941625,"velocity":0.3937007874015748},{"duration":0.13636350000000164,"durationTicks":96,"midi":77,"name":"F5","ticks":41096,"time":58.374941625,"velocity":0.3937007874015748},{"duration":0.13636349999999453,"durationTicks":96,"midi":79,"name":"G5","ticks":41224,"time":58.556759625000005,"velocity":0.3937007874015748},{"duration":0.13636349999999453,"durationTicks":96,"midi":71,"name":"B4","ticks":41224,"time":58.556759625000005,"velocity":0.3937007874015748},{"duration":0.13636349999999453,"durationTicks":96,"midi":77,"name":"F5","ticks":41353,"time":58.739998078125005,"velocity":0.3937007874015748},{"duration":0.13636350000000164,"durationTicks":96,"midi":76,"name":"E5","ticks":41481,"time":58.921816078125,"velocity":0.3937007874015748},{"duration":0.13636350000000164,"durationTicks":96,"midi":72,"name":"C5","ticks":41577,"time":59.058179578125,"velocity":0.3937007874015748},{"duration":0.13636349999999453,"durationTicks":96,"midi":69,"name":"A4","ticks":41769,"time":59.330906578125,"velocity":0.3937007874015748},{"duration":0.13636350000000164,"durationTicks":96,"midi":67,"name":"G4","ticks":41865,"time":59.467270078125,"velocity":0.3937007874015748},{"duration":0.13636350000000164,"durationTicks":96,"midi":60,"name":"C4","ticks":42057,"time":59.739997078125,"velocity":0.3937007874015748},{"duration":0.13636350000000164,"durationTicks":96,"midi":76,"name":"E5","ticks":42249,"time":60.012724078125,"velocity":0.3937007874015748},{"duration":0.13636350000000164,"durationTicks":96,"midi":72,"name":"C5","ticks":42345,"time":60.149087578125,"velocity":0.3937007874015748},{"duration":0.27272699999999617,"durationTicks":192,"midi":67,"name":"G4","ticks":42537,"time":60.421814578125,"velocity":0.3937007874015748},{"duration":0.2727270000000033,"durationTicks":192,"midi":68,"name":"G#4","ticks":42825,"time":60.830905078125,"velocity":0.3937007874015748},{"duration":0.13636349999999453,"durationTicks":96,"midi":69,"name":"A4","ticks":43017,"time":61.103632078125,"velocity":0.3937007874015748},{"duration":0.13636350000000164,"durationTicks":96,"midi":77,"name":"F5","ticks":43113,"time":61.239995578125,"velocity":0.3937007874015748},{"duration":0.13636350000000164,"durationTicks":96,"midi":77,"name":"F5","ticks":43305,"time":61.512722578125,"velocity":0.3937007874015748},{"duration":0.13636349999999453,"durationTicks":96,"midi":69,"name":"A4","ticks":43401,"time":61.649086078125,"velocity":0.3937007874015748},{"duration":0.13636350000000164,"durationTicks":96,"midi":60,"name":"C4","ticks":43593,"time":61.921813078125,"velocity":0.3937007874015748},{"duration":0.13636349999999453,"durationTicks":96,"midi":71,"name":"B4","ticks":43785,"time":62.194540078125,"velocity":0.3937007874015748},{"duration":0.13636349999999453,"durationTicks":96,"midi":67,"name":"G4","ticks":43785,"time":62.194540078125,"velocity":0.3937007874015748},{"duration":0.13636350000000164,"durationTicks":96,"midi":77,"name":"F5","ticks":43881,"time":62.330903578124996,"velocity":0.3937007874015748},{"duration":0.13636350000000164,"durationTicks":96,"midi":69,"name":"A4","ticks":43881,"time":62.330903578124996,"velocity":0.3937007874015748},{"duration":0.13636350000000164,"durationTicks":96,"midi":77,"name":"F5","ticks":44073,"time":62.603630578125,"velocity":0.3937007874015748},{"duration":0.13636350000000164,"durationTicks":96,"midi":69,"name":"A4","ticks":44073,"time":62.603630578125,"velocity":0.3937007874015748},{"duration":0.13636350000000164,"durationTicks":96,"midi":77,"name":"F5","ticks":44169,"time":62.739994078125,"velocity":0.3937007874015748},{"duration":0.13636350000000164,"durationTicks":96,"midi":69,"name":"A4","ticks":44169,"time":62.739994078125,"velocity":0.3937007874015748},{"duration":0.13636350000000164,"durationTicks":96,"midi":67,"name":"G4","ticks":44297,"time":62.921812078124994,"velocity":0.3937007874015748},{"duration":0.13636350000000164,"durationTicks":96,"midi":76,"name":"E5","ticks":44297,"time":62.921812078124994,"velocity":0.3937007874015748},{"duration":0.13636350000000164,"durationTicks":96,"midi":74,"name":"D5","ticks":44426,"time":63.105050531249994,"velocity":0.3937007874015748},{"duration":0.13636350000000164,"durationTicks":96,"midi":65,"name":"F4","ticks":44426,"time":63.105050531249994,"velocity":0.3937007874015748},{"duration":0.13636350000000164,"durationTicks":96,"midi":72,"name":"C5","ticks":44554,"time":63.28686853125,"velocity":0.3937007874015748},{"duration":0.13636350000000164,"durationTicks":96,"midi":64,"name":"E4","ticks":44554,"time":63.28686853125,"velocity":0.3937007874015748},{"duration":0.13636350000000164,"durationTicks":96,"midi":67,"name":"G4","ticks":44650,"time":63.42323203125,"velocity":0.3937007874015748},{"duration":0.13636349999999453,"durationTicks":96,"midi":67,"name":"G4","ticks":44842,"time":63.695959031250005,"velocity":0.3937007874015748},{"duration":0.2727270000000033,"durationTicks":192,"midi":60,"name":"C4","ticks":44938,"time":63.83232253125,"velocity":0.3937007874015748},{"duration":0.13636350000000164,"durationTicks":96,"midi":64,"name":"E4","ticks":45322,"time":64.37777653125,"velocity":0.3937007874015748},{"duration":0.13636350000000164,"durationTicks":96,"midi":72,"name":"C5","ticks":45322,"time":64.37777653125,"velocity":0.3937007874015748},{"duration":0.13636349999998743,"durationTicks":96,"midi":72,"name":"C5","ticks":45418,"time":64.51414003125001,"velocity":0.3937007874015748},{"duration":0.13636350000000164,"durationTicks":96,"midi":72,"name":"C5","ticks":45610,"time":64.78686703125,"velocity":0.3937007874015748},{"duration":0.13636350000000164,"durationTicks":96,"midi":72,"name":"C5","ticks":45802,"time":65.05959403125,"velocity":0.3937007874015748},{"duration":0.13636350000000164,"durationTicks":96,"midi":74,"name":"D5","ticks":45898,"time":65.19595753125,"velocity":0.3937007874015748},{"duration":0.13636350000000164,"durationTicks":96,"midi":76,"name":"E5","ticks":46090,"time":65.46868453125,"velocity":0.3937007874015748},{"duration":0.13636350000000164,"durationTicks":96,"midi":72,"name":"C5","ticks":46186,"time":65.60504803125,"velocity":0.3937007874015748},{"duration":0.13636350000000164,"durationTicks":96,"midi":69,"name":"A4","ticks":46378,"time":65.87777503125,"velocity":0.3937007874015748},{"duration":0.13636350000000164,"durationTicks":96,"midi":67,"name":"G4","ticks":46474,"time":66.01413853125,"velocity":0.3937007874015748},{"duration":0.13636350000000164,"durationTicks":96,"midi":60,"name":"C4","ticks":46666,"time":66.28686553125,"velocity":0.3937007874015748},{"duration":0.13636350000000164,"durationTicks":96,"midi":72,"name":"C5","ticks":46858,"time":66.55959253125,"velocity":0.3937007874015748},{"duration":0.13636350000000164,"durationTicks":96,"midi":64,"name":"E4","ticks":46858,"time":66.55959253125,"velocity":0.3937007874015748},{"duration":0.13636350000000164,"durationTicks":96,"midi":72,"name":"C5","ticks":46954,"time":66.69595603125,"velocity":0.3937007874015748},{"duration":0.13636350000000164,"durationTicks":96,"midi":72,"name":"C5","ticks":47146,"time":66.96868303125,"velocity":0.3937007874015748},{"duration":0.13636350000000164,"durationTicks":96,"midi":72,"name":"C5","ticks":47338,"time":67.24141003125,"velocity":0.3937007874015748},{"duration":0.13636350000000164,"durationTicks":96,"midi":74,"name":"D5","ticks":47434,"time":67.37777353125,"velocity":0.3937007874015748},{"duration":0.13636350000000164,"durationTicks":96,"midi":76,"name":"E5","ticks":47530,"time":67.51413703125,"velocity":0.3937007874015748},{"duration":0.13636350000000164,"durationTicks":96,"midi":67,"name":"G4","ticks":47626,"time":67.65050053125,"velocity":0.3937007874015748},{"duration":0.13636349999998743,"durationTicks":96,"midi":60,"name":"C4","ticks":47914,"time":68.05959103125001,"velocity":0.3937007874015748},{"duration":0.13636350000000164,"durationTicks":96,"midi":60,"name":"C4","ticks":48202,"time":68.46868153125,"velocity":0.3937007874015748},{"duration":0.13636350000000164,"durationTicks":96,"midi":72,"name":"C5","ticks":48394,"time":68.74140853125,"velocity":0.3937007874015748},{"duration":0.13636350000000164,"durationTicks":96,"midi":64,"name":"E4","ticks":48394,"time":68.74140853125,"velocity":0.3937007874015748},{"duration":0.13636350000000164,"durationTicks":96,"midi":72,"name":"C5","ticks":48490,"time":68.87777203125,"velocity":0.3937007874015748},{"duration":0.13636350000000164,"durationTicks":96,"midi":72,"name":"C5","ticks":48682,"time":69.15049903125,"velocity":0.3937007874015748},{"duration":0.13636350000000164,"durationTicks":96,"midi":72,"name":"C5","ticks":48874,"time":69.42322603125,"velocity":0.3937007874015748},{"duration":0.13636350000000164,"durationTicks":96,"midi":74,"name":"D5","ticks":48970,"time":69.55958953125,"velocity":0.3937007874015748},{"duration":0.13636349999998743,"durationTicks":96,"midi":76,"name":"E5","ticks":49162,"time":69.83231653125,"velocity":0.3937007874015748},{"duration":0.13636350000000164,"durationTicks":96,"midi":72,"name":"C5","ticks":49258,"time":69.96868003124999,"velocity":0.3937007874015748},{"duration":0.13636350000000164,"durationTicks":96,"midi":69,"name":"A4","ticks":49450,"time":70.24140703124999,"velocity":0.3937007874015748},{"duration":0.13636350000000164,"durationTicks":96,"midi":67,"name":"G4","ticks":49546,"time":70.37777053125,"velocity":0.3937007874015748},{"duration":0.13636350000000164,"durationTicks":96,"midi":60,"name":"C4","ticks":49738,"time":70.65049753125,"velocity":0.3937007874015748},{"duration":0.13636349999998743,"durationTicks":96,"midi":76,"name":"E5","ticks":49930,"time":70.92322453125,"velocity":0.3937007874015748},{"duration":0.13636349999998743,"durationTicks":96,"midi":72,"name":"C5","ticks":49930,"time":70.92322453125,"velocity":0.3937007874015748},{"duration":0.13636350000000164,"durationTicks":96,"midi":76,"name":"E5","ticks":50026,"time":71.05958803124999,"velocity":0.3937007874015748},{"duration":0.13636350000000164,"durationTicks":96,"midi":72,"name":"C5","ticks":50026,"time":71.05958803124999,"velocity":0.3937007874015748},{"duration":0.13636350000000164,"durationTicks":96,"midi":76,"name":"E5","ticks":50218,"time":71.33231503124999,"velocity":0.3937007874015748},{"duration":0.13636350000000164,"durationTicks":96,"midi":72,"name":"C5","ticks":50218,"time":71.33231503124999,"velocity":0.3937007874015748},{"duration":0.13636350000000164,"durationTicks":96,"midi":72,"name":"C5","ticks":50410,"time":71.60504203125,"velocity":0.3937007874015748},{"duration":0.13636350000000164,"durationTicks":96,"midi":76,"name":"E5","ticks":50506,"time":71.74140553125,"velocity":0.3937007874015748},{"duration":0.27272699999998906,"durationTicks":192,"midi":71,"name":"B4","ticks":50698,"time":72.01413253125,"velocity":0.3937007874015748},{"duration":0.27272699999998906,"durationTicks":192,"midi":79,"name":"G5","ticks":50698,"time":72.01413253125,"velocity":0.3937007874015748},{"duration":0.2727270000000033,"durationTicks":192,"midi":67,"name":"G4","ticks":51082,"time":72.55958653124999,"velocity":0.3937007874015748},{"duration":0.2727270000000033,"durationTicks":192,"midi":59,"name":"B3","ticks":51082,"time":72.55958653124999,"velocity":0.3937007874015748},{"duration":0.13636350000000164,"durationTicks":96,"midi":76,"name":"E5","ticks":51466,"time":73.10504053125,"velocity":0.3937007874015748},{"duration":0.13636350000000164,"durationTicks":96,"midi":72,"name":"C5","ticks":51562,"time":73.24140403125,"velocity":0.3937007874015748},{"duration":0.2727270000000033,"durationTicks":192,"midi":67,"name":"G4","ticks":51754,"time":73.51413103124999,"velocity":0.3937007874015748},{"duration":0.2727270000000033,"durationTicks":192,"midi":68,"name":"G#4","ticks":52042,"time":73.92322153125,"velocity":0.3937007874015748},{"duration":0.13636350000000164,"durationTicks":96,"midi":69,"name":"A4","ticks":52234,"time":74.19594853125,"velocity":0.3937007874015748},{"duration":0.13636350000000164,"durationTicks":96,"midi":77,"name":"F5","ticks":52330,"time":74.33231203125,"velocity":0.3937007874015748},{"duration":0.13636350000000164,"durationTicks":96,"midi":77,"name":"F5","ticks":52522,"time":74.60503903124999,"velocity":0.3937007874015748},{"duration":0.13636350000000164,"durationTicks":96,"midi":69,"name":"A4","ticks":52618,"time":74.74140253124999,"velocity":0.3937007874015748},{"duration":0.13636350000000164,"durationTicks":96,"midi":60,"name":"C4","ticks":52810,"time":75.01412953124999,"velocity":0.3937007874015748},{"duration":0.13636350000000164,"durationTicks":96,"midi":67,"name":"G4","ticks":53002,"time":75.28685653125,"velocity":0.3937007874015748},{"duration":0.13636350000000164,"durationTicks":96,"midi":71,"name":"B4","ticks":53002,"time":75.28685653125,"velocity":0.3937007874015748},{"duration":0.13636350000000164,"durationTicks":96,"midi":81,"name":"A5","ticks":53130,"time":75.46867453125,"velocity":0.3937007874015748},{"duration":0.13636350000000164,"durationTicks":96,"midi":77,"name":"F5","ticks":53130,"time":75.46867453125,"velocity":0.3937007874015748},{"duration":0.13636350000000164,"durationTicks":96,"midi":81,"name":"A5","ticks":53259,"time":75.651912984375,"velocity":0.3937007874015748},{"duration":0.13636350000000164,"durationTicks":96,"midi":77,"name":"F5","ticks":53259,"time":75.651912984375,"velocity":0.3937007874015748},{"duration":0.13636350000000164,"durationTicks":96,"midi":77,"name":"F5","ticks":53387,"time":75.83373098437501,"velocity":0.3937007874015748},{"duration":0.13636350000000164,"durationTicks":96,"midi":81,"name":"A5","ticks":53387,"time":75.83373098437501,"velocity":0.3937007874015748},{"duration":0.13636350000000164,"durationTicks":96,"midi":79,"name":"G5","ticks":53515,"time":76.01554898437499,"velocity":0.3937007874015748},{"duration":0.13636350000000164,"durationTicks":96,"midi":71,"name":"B4","ticks":53515,"time":76.01554898437499,"velocity":0.3937007874015748},{"duration":0.13636350000000164,"durationTicks":96,"midi":77,"name":"F5","ticks":53644,"time":76.19878743749999,"velocity":0.3937007874015748},{"duration":0.13636350000000164,"durationTicks":96,"midi":76,"name":"E5","ticks":53772,"time":76.3806054375,"velocity":0.3937007874015748},{"duration":0.13636350000000164,"durationTicks":96,"midi":72,"name":"C5","ticks":53868,"time":76.5169689375,"velocity":0.3937007874015748},{"duration":0.13636350000000164,"durationTicks":96,"midi":69,"name":"A4","ticks":54060,"time":76.7896959375,"velocity":0.3937007874015748},{"duration":0.13636350000000164,"durationTicks":96,"midi":67,"name":"G4","ticks":54156,"time":76.9260594375,"velocity":0.3937007874015748},{"duration":0.13636350000000164,"durationTicks":96,"midi":60,"name":"C4","ticks":54348,"time":77.1987864375,"velocity":0.3937007874015748},{"duration":0.13636350000000164,"durationTicks":96,"midi":76,"name":"E5","ticks":54540,"time":77.4715134375,"velocity":0.3937007874015748},{"duration":0.13636350000000164,"durationTicks":96,"midi":72,"name":"C5","ticks":54636,"time":77.6078769375,"velocity":0.3937007874015748},{"duration":0.2727270000000033,"durationTicks":192,"midi":67,"name":"G4","ticks":54828,"time":77.8806039375,"velocity":0.3937007874015748},{"duration":0.27272699999998906,"durationTicks":192,"midi":68,"name":"G#4","ticks":55116,"time":78.2896944375,"velocity":0.3937007874015748},{"duration":0.13636350000000164,"durationTicks":96,"midi":69,"name":"A4","ticks":55308,"time":78.56242143749999,"velocity":0.3937007874015748},{"duration":0.13636350000000164,"durationTicks":96,"midi":77,"name":"F5","ticks":55404,"time":78.6987849375,"velocity":0.3937007874015748},{"duration":0.13636350000000164,"durationTicks":96,"midi":77,"name":"F5","ticks":55596,"time":78.9715119375,"velocity":0.3937007874015748},{"duration":0.13636350000000164,"durationTicks":96,"midi":69,"name":"A4","ticks":55692,"time":79.1078754375,"velocity":0.3937007874015748},{"duration":0.13636350000000164,"durationTicks":96,"midi":60,"name":"C4","ticks":55884,"time":79.3806024375,"velocity":0.3937007874015748},{"duration":0.13636349999998743,"durationTicks":96,"midi":71,"name":"B4","ticks":56076,"time":79.6533294375,"velocity":0.3937007874015748},{"duration":0.13636349999998743,"durationTicks":96,"midi":67,"name":"G4","ticks":56076,"time":79.6533294375,"velocity":0.3937007874015748},{"duration":0.13636350000000164,"durationTicks":96,"midi":77,"name":"F5","ticks":56172,"time":79.78969293749999,"velocity":0.3937007874015748},{"duration":0.13636350000000164,"durationTicks":96,"midi":69,"name":"A4","ticks":56172,"time":79.78969293749999,"velocity":0.3937007874015748},{"duration":0.13636350000000164,"durationTicks":96,"midi":77,"name":"F5","ticks":56364,"time":80.0624199375,"velocity":0.3937007874015748},{"duration":0.13636350000000164,"durationTicks":96,"midi":69,"name":"A4","ticks":56364,"time":80.0624199375,"velocity":0.3937007874015748},{"duration":0.13636350000000164,"durationTicks":96,"midi":77,"name":"F5","ticks":56460,"time":80.1987834375,"velocity":0.3937007874015748},{"duration":0.13636350000000164,"durationTicks":96,"midi":69,"name":"A4","ticks":56460,"time":80.1987834375,"velocity":0.3937007874015748},{"duration":0.13636350000000164,"durationTicks":96,"midi":76,"name":"E5","ticks":56588,"time":80.3806014375,"velocity":0.3937007874015748},{"duration":0.13636350000000164,"durationTicks":96,"midi":67,"name":"G4","ticks":56588,"time":80.3806014375,"velocity":0.3937007874015748},{"duration":0.13636350000000164,"durationTicks":96,"midi":65,"name":"F4","ticks":56717,"time":80.563839890625,"velocity":0.3937007874015748},{"duration":0.13636350000000164,"durationTicks":96,"midi":74,"name":"D5","ticks":56717,"time":80.563839890625,"velocity":0.3937007874015748},{"duration":0.13636350000000164,"durationTicks":96,"midi":72,"name":"C5","ticks":56845,"time":80.745657890625,"velocity":0.3937007874015748},{"duration":0.13636350000000164,"durationTicks":96,"midi":64,"name":"E4","ticks":56845,"time":80.745657890625,"velocity":0.3937007874015748},{"duration":0.13636350000000164,"durationTicks":96,"midi":67,"name":"G4","ticks":56941,"time":80.882021390625,"velocity":0.3937007874015748},{"duration":0.13636350000000164,"durationTicks":96,"midi":67,"name":"G4","ticks":57133,"time":81.15474839062499,"velocity":0.3937007874015748},{"duration":0.2727270000000033,"durationTicks":192,"midi":60,"name":"C4","ticks":57229,"time":81.29111189062499,"velocity":0.3937007874015748}]}]}